<svg width="30" height="30" viewBox="0 0 30 30" fill="none" xmlns="http://www.w3.org/2000/svg">
<g clip-path="url(#clip0_189_2659)">
<path d="M22.5 13.75V16.25H27.5V13.75H22.5ZM20 22.0125C21.2 22.9 22.7625 24.075 24 25C24.5 24.3375 25 23.6625 25.5 23C24.2625 22.075 22.7 20.9 21.5 20C21 20.675 20.5 21.35 20 22.0125ZM25.5 7C25 6.3375 24.5 5.6625 24 5C22.7625 5.925 21.2 7.1 20 8C20.5 8.6625 21 9.3375 21.5 10C22.7 9.1 24.2625 7.9375 25.5 7ZM5 11.25C3.625 11.25 2.5 12.375 2.5 13.75V16.25C2.5 17.625 3.625 18.75 5 18.75H6.25V23.75H8.75V18.75H10L16.25 22.5V7.5L10 11.25H5ZM19.375 15C19.375 13.3375 18.65 11.8375 17.5 10.8125V19.175C18.65 18.1625 19.375 16.6625 19.375 15Z" fill="white"/>
</g>
<defs>
<clipPath id="clip0_189_2659">
<rect width="30" height="30" fill="white"/>
</clipPath>
</defs>
</svg>
