<svg width="30" height="30" viewBox="0 0 30 30" fill="none" xmlns="http://www.w3.org/2000/svg">
<g clip-path="url(#clip0_189_2658)">
<path d="M15 3.75C8.7875 3.75 3.75 8.7875 3.75 15C3.75 21.2125 8.7875 26.25 15 26.25C16.0375 26.25 16.875 25.4125 16.875 24.375C16.875 23.8875 16.6875 23.45 16.3875 23.1125C16.1 22.7875 15.9125 22.35 15.9125 21.875C15.9125 20.8375 16.75 20 17.7875 20H20C23.45 20 26.25 17.2 26.25 13.75C26.25 8.225 21.2125 3.75 15 3.75ZM8.125 15C7.0875 15 6.25 14.1625 6.25 13.125C6.25 12.0875 7.0875 11.25 8.125 11.25C9.1625 11.25 10 12.0875 10 13.125C10 14.1625 9.1625 15 8.125 15ZM11.875 10C10.8375 10 10 9.1625 10 8.125C10 7.0875 10.8375 6.25 11.875 6.25C12.9125 6.25 13.75 7.0875 13.75 8.125C13.75 9.1625 12.9125 10 11.875 10ZM18.125 10C17.0875 10 16.25 9.1625 16.25 8.125C16.25 7.0875 17.0875 6.25 18.125 6.25C19.1625 6.25 20 7.0875 20 8.125C20 9.1625 19.1625 10 18.125 10ZM21.875 15C20.8375 15 20 14.1625 20 13.125C20 12.0875 20.8375 11.25 21.875 11.25C22.9125 11.25 23.75 12.0875 23.75 13.125C23.75 14.1625 22.9125 15 21.875 15Z" fill="white"/>
</g>
<defs>
<clipPath id="clip0_189_2658">
<rect width="30" height="30" fill="white"/>
</clipPath>
</defs>
</svg>
