<svg width="30" height="30" viewBox="0 0 30 30" fill="none" xmlns="http://www.w3.org/2000/svg">
<g clip-path="url(#clip0_189_2636)">
<path d="M11.25 14.6875C10.3875 14.6875 9.6875 15.3875 9.6875 16.25C9.6875 17.1125 10.3875 17.8125 11.25 17.8125C12.1125 17.8125 12.8125 17.1125 12.8125 16.25C12.8125 15.3875 12.1125 14.6875 11.25 14.6875ZM18.75 14.6875C17.8875 14.6875 17.1875 15.3875 17.1875 16.25C17.1875 17.1125 17.8875 17.8125 18.75 17.8125C19.6125 17.8125 20.3125 17.1125 20.3125 16.25C20.3125 15.3875 19.6125 14.6875 18.75 14.6875ZM15 2.5C8.1 2.5 2.5 8.1 2.5 15C2.5 21.9 8.1 27.5 15 27.5C21.9 27.5 27.5 21.9 27.5 15C27.5 8.1 21.9 2.5 15 2.5ZM15 25C9.4875 25 5 20.5125 5 15C5 14.6375 5.025 14.275 5.0625 13.925C8.0125 12.6125 10.35 10.2 11.575 7.2125C13.8375 10.4125 17.5625 12.5 21.775 12.5C22.75 12.5 23.6875 12.3875 24.5875 12.175C24.85 13.0625 25 14.0125 25 15C25 20.5125 20.5125 25 15 25Z" fill="white"/>
</g>
<defs>
<clipPath id="clip0_189_2636">
<rect width="30" height="30" fill="white"/>
</clipPath>
</defs>
</svg>
