<svg width="30" height="30" viewBox="0 0 30 30" fill="none" xmlns="http://www.w3.org/2000/svg">
<path d="M20.4997 9.26407C20.8697 9.53829 21.2153 9.84192 21.5272 10.1667C21.6327 10.2766 21.7835 10.3332 21.9352 10.3332C22.0568 10.3332 22.1789 10.297 22.279 10.2228C22.5042 10.0558 22.5328 9.76012 22.3428 9.56225C21.9922 9.19715 21.6036 8.85567 21.1876 8.54747C20.9624 8.38053 20.6257 8.40567 20.4358 8.60354C20.2458 8.80147 20.2744 9.09719 20.4997 9.26407Z" fill="#F2441D"/>
<path d="M23.4749 11.0292C23.4479 10.9849 23.4138 10.9461 23.3748 10.9129C23.3633 10.8678 23.3439 10.8234 23.3162 10.7812C23.1689 10.557 22.8425 10.4802 22.5874 10.6096L20.659 11.5878C20.4799 11.4532 20.2685 11.3531 20.0341 11.2979C19.6211 11.2005 19.1898 11.2504 18.8196 11.4383L17.1195 12.3007C16.9553 12.2008 16.7818 12.112 16.6 12.0358V10.3125C16.6 9.70142 16.1539 9.18041 15.533 8.98687V7.51482C16.7517 7.58197 17.9466 7.87799 19.0179 8.38119C19.2778 8.50318 19.601 8.41705 19.74 8.18882C19.8789 7.96054 19.7809 7.67654 19.521 7.55449C18.1395 6.90557 16.5759 6.5625 14.9994 6.5625C11.4712 6.5625 8.38173 8.24314 6.7124 10.7409C6.7018 10.7538 6.69186 10.7672 6.68266 10.7812C6.67585 10.7916 6.67005 10.8022 6.66425 10.8128C5.85763 12.0475 5.396 13.4773 5.396 15C5.396 16.7982 6.03116 18.5146 7.23279 19.9637C7.33722 20.0896 7.49968 20.1565 7.66441 20.1565C7.77338 20.1565 7.88335 20.1272 7.97819 20.0665C8.21634 19.9141 8.26876 19.6209 8.09523 19.4116C8.02354 19.3251 7.95451 19.2374 7.88735 19.1489L9.33987 18.4121C9.51894 18.5468 9.73035 18.6469 9.96476 18.702C10.1026 18.7346 10.2426 18.7506 10.3816 18.7506C10.6589 18.7506 10.9327 18.6867 11.1793 18.5615L12.8793 17.6992C13.0436 17.7991 13.2171 17.8879 13.3989 17.964V19.6875C13.3989 20.2985 13.8449 20.8196 14.4659 21.0131V22.485C12.6443 22.3845 10.8976 21.7723 9.49839 20.7352C9.27325 20.5683 8.93666 20.5933 8.74659 20.7913C8.55659 20.9891 8.58513 21.2849 8.81035 21.4517C10.5379 22.7322 12.736 23.4375 14.9994 23.4375C18.5334 23.4375 21.6271 21.7514 23.2946 19.247C23.3019 19.2376 23.3097 19.2287 23.3163 19.2187C23.3232 19.2082 23.3291 19.1974 23.335 19.1866C24.1414 17.9521 24.6029 16.5225 24.6029 15C24.6028 13.6157 24.2127 12.2426 23.4749 11.0292ZM19.353 12.2502C19.4764 12.1876 19.6202 12.171 19.7579 12.2034C19.8955 12.2359 20.0106 12.3134 20.0818 12.4219C20.229 12.6457 20.1413 12.933 19.8866 13.0622L18.4664 13.7826C18.3323 13.4889 18.1514 13.2162 17.9315 12.9714L19.353 12.2502ZM18.4664 16.2174L19.8866 16.9377C20.1413 17.067 20.229 17.3542 20.0818 17.5781C20.0106 17.6866 19.8956 17.7641 19.7579 17.7965C19.6203 17.829 19.4764 17.8124 19.353 17.7497L17.9315 17.0286C18.1514 16.7838 18.3323 16.5111 18.4664 16.2174ZM14.9994 9.84374C15.2935 9.84374 15.5329 10.054 15.5329 10.3125V11.7528C15.3586 11.7308 15.1806 11.7187 14.9994 11.7187C14.8182 11.7187 14.6402 11.7308 14.4658 11.7528V10.3125C14.4658 10.054 14.7051 9.84374 14.9994 9.84374ZM14.4658 7.51506V8.98687C13.8449 9.18041 13.3988 9.70142 13.3988 10.3125V12.036C13.217 12.1121 13.0435 12.2009 12.8793 12.3008L11.1792 11.4384C10.809 11.2506 10.3775 11.2007 9.96469 11.298C9.73028 11.3532 9.51887 11.4533 9.33981 11.5879L7.89049 10.8528C9.32907 8.95552 11.7242 7.66441 14.4658 7.51506ZM8.83289 16.9797C8.77 17.1859 8.76133 17.3972 8.80468 17.601L7.3529 18.3374C6.76842 17.3077 6.46298 16.1737 6.46298 15C6.46298 13.8022 6.78476 12.6693 7.35556 11.6638L8.80468 12.3989C8.76133 12.6027 8.77 12.814 8.83289 13.0202C8.94353 13.383 9.20836 13.6862 9.57862 13.874L11.2778 14.7359C11.2699 14.8231 11.2647 14.9109 11.2647 14.9999C11.2647 15.0888 11.2699 15.1767 11.2778 15.2638L9.57862 16.1257C9.20836 16.3137 8.94353 16.6169 8.83289 16.9797ZM10.6457 17.7497C10.3908 17.8789 10.0639 17.8019 9.91688 17.5781C9.76976 17.3543 9.85739 17.067 10.1121 16.9377L11.5323 16.2174C11.6664 16.5111 11.8473 16.7838 12.0672 17.0286L10.6457 17.7497ZM11.5323 13.7826L10.1121 13.0622C9.85739 12.933 9.76976 12.6458 9.91688 12.4219C10.0639 12.1981 10.3909 12.1212 10.6457 12.2502L12.0672 12.9714C11.8473 13.2162 11.6664 13.4889 11.5323 13.7826ZM12.3317 15C12.3317 13.7076 13.5284 12.6562 14.9994 12.6562C16.4703 12.6562 17.667 13.7076 17.667 15C17.667 16.2923 16.4703 17.3437 14.9994 17.3437C13.5284 17.3437 12.3317 16.2923 12.3317 15ZM14.9994 20.1562C14.7052 20.1562 14.4658 19.9459 14.4658 19.6875V18.2472C14.6402 18.2692 14.8182 18.2812 14.9994 18.2812C15.1806 18.2812 15.3586 18.2692 15.5329 18.2472V19.6875C15.5329 19.9459 15.2935 20.1562 14.9994 20.1562ZM15.5329 22.4849V21.0131C16.1538 20.8196 16.5999 20.2985 16.5999 19.6875V17.964C16.7817 17.8879 16.9552 17.7991 17.1195 17.6992L18.8195 18.5615C19.0661 18.6867 19.3398 18.7506 19.6171 18.7506C19.7561 18.7506 19.8962 18.7346 20.034 18.702C20.2684 18.6469 20.4799 18.5468 20.6589 18.4121L22.1082 19.1472C20.6696 21.0444 18.2745 22.3356 15.5329 22.4849ZM22.6431 18.3361L21.1932 17.6006C21.313 17.0314 21.0224 16.4314 20.42 16.1259L18.7208 15.264C18.7288 15.1768 18.734 15.089 18.734 15C18.734 14.9111 18.7288 14.8232 18.7208 14.7361L20.42 13.8742C21.0224 13.5687 21.3129 12.9687 21.1932 12.3995L22.6458 11.6627C23.2285 12.6926 23.5357 13.8416 23.5357 15.0001C23.5357 16.1978 23.2139 17.3307 22.6431 18.3361Z" fill="#F2441D"/>
<path d="M29.199 20.579L26.4268 19.1728C26.2372 19.0766 26.0316 19.0168 25.8206 18.9942C26.4105 17.7651 26.737 16.4155 26.737 15C26.737 13.5845 26.4104 12.2348 25.8205 11.0056C26.0315 10.983 26.2372 10.9234 26.4268 10.8272L29.199 9.42104C29.5693 9.23318 29.8341 8.92996 29.9448 8.56715C30.0554 8.20434 29.9987 7.82536 29.7849 7.50004C29.3436 6.8285 28.3627 6.59753 27.5985 6.98536L24.8262 8.3916C24.6321 8.49004 24.4705 8.61912 24.3445 8.76783C22.4798 6.61469 19.6752 5.12249 16.4726 4.76858C16.5546 4.5996 16.6001 4.4138 16.6001 4.2188V1.40625C16.6001 0.630878 15.8821 0 14.9995 0C14.1169 0 13.3989 0.630878 13.3989 1.40625V4.21874C13.3989 4.41374 13.4444 4.59954 13.5264 4.76853C10.324 5.12237 7.51936 6.61458 5.65463 8.7676C5.52638 8.61672 5.36399 8.48852 5.17279 8.39155L2.40053 6.9853C2.03033 6.79745 1.59898 6.74741 1.18603 6.84485C0.773082 6.94206 0.427891 7.17473 0.214148 7.50004C-0.227143 8.17159 0.0356846 9.03332 0.800024 9.42098L3.57228 10.8273C3.76482 10.925 3.97096 10.983 4.17883 11.005C3.58869 12.2343 3.26204 13.5843 3.26204 15C3.26204 16.4157 3.58862 17.7656 4.1787 18.9948C3.97089 19.0169 3.76468 19.0752 3.57221 19.1728L0.799958 20.5791C0.0356847 20.9667 -0.227143 21.8285 0.214082 22.5C0.427825 22.8253 0.773015 23.0579 1.18596 23.1552C1.32388 23.1877 1.4638 23.2037 1.60284 23.2037C1.88014 23.2037 2.15391 23.1398 2.40046 23.0147L5.17272 21.6085C5.36392 21.5115 5.52631 21.3833 5.65456 21.2324C7.51929 23.3854 10.3239 24.8776 13.5264 25.2315C13.4443 25.4005 13.3989 25.5863 13.3989 25.7813V28.5938C13.3989 29.3691 14.1168 30 14.9994 30C15.882 30 16.6 29.3691 16.6 28.5938V25.7813C16.6 25.5863 16.5545 25.4005 16.4725 25.2315C19.6751 24.8776 22.4797 23.3854 24.3444 21.2322C24.4705 21.3809 24.6321 21.51 24.8261 21.6085L27.5984 23.0148C27.8499 23.1423 28.1246 23.2028 28.396 23.2028C28.9495 23.2028 29.4887 22.9506 29.7848 22.5C29.9986 22.1747 30.0554 21.7957 29.9447 21.4329C29.834 21.0701 29.5693 20.7668 29.199 20.579ZM25.3597 9.20336L28.132 7.79717C28.2142 7.75545 28.3055 7.73418 28.3979 7.73418C28.4442 7.73418 28.4909 7.73952 28.5369 7.7503C28.6745 7.78276 28.7896 7.86028 28.8608 7.96873C28.932 8.07719 28.9509 8.20346 28.9141 8.3244C28.8772 8.44534 28.789 8.54647 28.6655 8.60905L25.8933 10.0153C25.7699 10.0778 25.626 10.0944 25.4884 10.0621C25.3508 10.0296 25.2357 9.95213 25.1645 9.84367C25.0173 9.6199 25.105 9.33262 25.3597 9.20336ZM14.466 1.40625C14.466 1.14779 14.7053 0.937498 14.9995 0.937498C15.2937 0.937498 15.533 1.14779 15.533 1.40625V4.21874C15.533 4.4772 15.2937 4.68749 14.9995 4.68749C14.7053 4.68749 14.466 4.4772 14.466 4.21874V1.40625ZM4.10567 10.0154L1.33342 8.60911C1.07866 8.47985 0.991026 8.19262 1.13815 7.96873C1.20937 7.86028 1.32441 7.78276 1.46213 7.7503C1.50808 7.73946 1.55476 7.73418 1.60111 7.73418C1.69354 7.73418 1.78478 7.75545 1.86694 7.79711L4.6392 9.20342C4.76264 9.26594 4.85087 9.36707 4.88775 9.48801C4.92463 9.60895 4.90576 9.73527 4.83447 9.84367C4.76317 9.95207 4.6482 10.0296 4.51055 10.0621C4.3729 10.0946 4.22905 10.0779 4.10567 10.0154ZM4.88775 20.5119C4.85087 20.6328 4.76264 20.7339 4.6392 20.7965L1.86694 22.2028C1.74349 22.2653 1.59971 22.2819 1.46213 22.2496C1.32448 22.2171 1.20937 22.1396 1.13815 22.0311C0.991026 21.8073 1.07866 21.52 1.33342 21.3908L4.10567 19.9846C4.18783 19.9429 4.27913 19.9216 4.37157 19.9216C4.41792 19.9216 4.4646 19.9269 4.51055 19.9377C4.6482 19.9702 4.76324 20.0477 4.83447 20.1562C4.90569 20.2646 4.92463 20.3909 4.88775 20.5119ZM15.533 28.5937C15.533 28.8522 15.2937 29.0624 14.9995 29.0624C14.7053 29.0624 14.466 28.8522 14.466 28.5937V25.7812C14.466 25.5227 14.7053 25.3125 14.9995 25.3125C15.2937 25.3125 15.533 25.5227 15.533 25.7812V28.5937ZM14.9995 24.375C9.1158 24.375 4.32902 20.1694 4.32902 15C4.32902 9.83055 9.1158 5.62499 14.9995 5.62499C20.8832 5.62499 25.67 9.83055 25.67 15C25.67 20.1694 20.8832 24.375 14.9995 24.375ZM28.8608 22.0312C28.7896 22.1397 28.6746 22.2172 28.5369 22.2496C28.3992 22.2821 28.2555 22.2655 28.1321 22.2028L25.3598 20.7966C25.105 20.6673 25.0174 20.3801 25.1645 20.1562C25.2358 20.0478 25.3508 19.9702 25.4885 19.9378C25.5345 19.9269 25.5811 19.9217 25.6275 19.9217C25.7199 19.9217 25.8112 19.9429 25.8933 19.9846L28.6656 21.3909C28.789 21.4534 28.8773 21.5545 28.9141 21.6755C28.951 21.7965 28.9321 21.9228 28.8608 22.0312Z" fill="#F2441D"/>
</svg>
