<svg width="30" height="30" viewBox="0 0 30 30" fill="none" xmlns="http://www.w3.org/2000/svg">
<g clip-path="url(#clip0_189_2683)">
<path d="M3.75 6.25H1.25V26.25C1.25 27.625 2.375 28.75 3.75 28.75H23.75V26.25H3.75V6.25ZM17.5 15V10C17.5 8.6125 16.375 7.5 15 7.5H13.75C12.375 7.5 11.25 8.6125 11.25 10V11.25C11.25 12.6375 12.375 13.75 13.75 13.75H15V15H11.25V17.5H15C16.375 17.5 17.5 16.3875 17.5 15ZM13.75 11.25V10H15V11.25H13.75ZM26.25 1.25H8.75C7.375 1.25 6.25 2.375 6.25 3.75V21.25C6.25 22.625 7.375 23.75 8.75 23.75H26.25C27.625 23.75 28.75 22.625 28.75 21.25V3.75C28.75 2.375 27.625 1.25 26.25 1.25ZM26.25 11.25H23.75V8.75H21.25V11.25H18.75V13.75H21.25V16.25H23.75V13.75H26.25V21.25H8.75V3.75H26.25V11.25Z" fill="white"/>
</g>
<defs>
<clipPath id="clip0_189_2683">
<rect width="30" height="30" fill="white"/>
</clipPath>
</defs>
</svg>
