<svg width="40" height="40" viewBox="0 0 40 40" fill="none" xmlns="http://www.w3.org/2000/svg">
<path d="M37.7453 10.7588C37.6413 10.562 37.4638 10.4144 37.2514 10.3481C37.0391 10.2819 36.8092 10.3024 36.6119 10.4052C36.4146 10.508 36.266 10.6847 36.1984 10.8968C36.1308 11.1089 36.1498 11.3391 36.2511 11.5372C38.0589 14.9908 38.7139 18.9331 38.1203 22.7864C37.5266 26.6397 35.7155 30.2014 32.9523 32.9495C25.817 40.0905 14.2056 40.0927 7.06728 32.9488C6.94948 32.8309 6.79939 32.7506 6.63599 32.7181C6.4726 32.6857 6.30325 32.7024 6.14938 32.7663C5.9955 32.8301 5.864 32.9383 5.77153 33.0769C5.67906 33.2156 5.62976 33.3786 5.62988 33.5454V38.3913C5.62988 38.6148 5.7186 38.8292 5.87653 38.9873C6.03445 39.1453 6.24864 39.2341 6.47198 39.2341C6.69532 39.2341 6.90951 39.1453 7.06743 38.9873C7.22535 38.8292 7.31407 38.6148 7.31407 38.3913V35.4488C10.8732 38.3766 15.3335 39.9843 19.9405 39.9999C24.5475 40.0155 29.0184 38.4381 32.5973 35.5344C36.1762 32.6307 38.6432 28.579 39.5813 24.0645C40.5193 19.55 39.8708 14.8498 37.7453 10.7588Z" fill="#0367A6"/>
<path d="M7.06711 7.04234C14.2047 -0.100829 25.816 -0.100079 32.9521 7.04159C33.0698 7.15965 33.2199 7.24009 33.3833 7.27272C33.5466 7.30536 33.716 7.28872 33.87 7.22491C34.0239 7.1611 34.1555 7.053 34.2479 6.91429C34.3404 6.77559 34.3897 6.61252 34.3895 6.44576V1.59985C34.3895 1.37631 34.3008 1.16193 34.1429 1.00387C33.985 0.845808 33.7708 0.757009 33.5474 0.757009C33.3241 0.757009 33.1099 0.845808 32.952 1.00387C32.7941 1.16193 32.7054 1.37631 32.7054 1.59985V4.54232C24.8618 -1.92199 13.2071 -1.48709 5.87651 5.84994C2.85882 8.85076 0.880867 12.7402 0.232569 16.9481C-0.41573 21.156 0.299721 25.4611 2.27405 29.2324C2.37805 29.4291 2.55559 29.5768 2.76793 29.643C2.98028 29.7093 3.21018 29.6887 3.40748 29.586C3.60477 29.4832 3.75343 29.3064 3.82102 29.0944C3.8886 28.8823 3.86963 28.652 3.76824 28.4539C1.96049 25.0004 1.30544 21.0582 1.8991 17.2051C2.49276 13.3519 4.30391 9.79031 7.06711 7.04234Z" fill="#0367A6"/>
<path d="M8.98193 19.8728V29.1933C8.98373 29.8026 9.22636 30.3865 9.65682 30.8173C10.0873 31.2482 10.6706 31.491 11.2794 31.4928H28.7397C29.3485 31.4911 29.9319 31.2483 30.3624 30.8174C30.7928 30.3865 31.0354 29.8027 31.0372 29.1933V19.8728C31.0354 19.2635 30.7928 18.6796 30.3623 18.2488C29.9319 17.8179 29.3485 17.5751 28.7397 17.5734H11.2794C10.6706 17.5752 10.0873 17.818 9.65683 18.2489C9.22637 18.6797 8.98374 19.2635 8.98193 19.8728ZM26.136 22.7322C26.4919 22.7322 26.8398 22.8378 27.1357 23.0357C27.4316 23.2336 27.6622 23.5149 27.7984 23.844C27.9346 24.1731 27.9703 24.5352 27.9008 24.8845C27.8314 25.2339 27.66 25.5548 27.4084 25.8066C27.1567 26.0585 26.8361 26.23 26.4871 26.2995C26.138 26.369 25.7762 26.3333 25.4475 26.197C25.1187 26.0607 24.8376 25.8299 24.6399 25.5337C24.4422 25.2376 24.3367 24.8894 24.3367 24.5332C24.3371 24.0557 24.5269 23.5978 24.8642 23.2602C25.2016 22.9226 25.659 22.7327 26.136 22.7322ZM20.0095 22.7322C20.3654 22.7322 20.7133 22.8378 21.0092 23.0357C21.3051 23.2336 21.5358 23.5149 21.6719 23.844C21.8081 24.1731 21.8438 24.5352 21.7743 24.8845C21.7049 25.2339 21.5335 25.5548 21.2819 25.8066C21.0302 26.0585 20.7096 26.23 20.3606 26.2995C20.0115 26.369 19.6497 26.3333 19.321 26.197C18.9922 26.0607 18.7111 25.8299 18.5134 25.5337C18.3157 25.2376 18.2102 24.8894 18.2102 24.5332C18.2106 24.0557 18.4004 23.5978 18.7377 23.2602C19.0751 22.9226 19.5325 22.7327 20.0095 22.7322ZM13.8831 22.7322C14.2389 22.7322 14.5868 22.8378 14.8827 23.0357C15.1786 23.2336 15.4093 23.5149 15.5454 23.844C15.6816 24.1731 15.7173 24.5352 15.6478 24.8845C15.5784 25.2339 15.407 25.5548 15.1554 25.8066C14.9037 26.0585 14.5831 26.23 14.2341 26.2995C13.885 26.369 13.5233 26.3333 13.1945 26.197C12.8657 26.0607 12.5847 25.8299 12.3869 25.5337C12.1892 25.2376 12.0837 24.8894 12.0837 24.5332C12.0842 24.0557 12.2739 23.5978 12.6112 23.2602C12.9486 22.9226 13.406 22.7327 13.8831 22.7322Z" fill="#0367A6"/>
<path d="M27.4681 15.8871V12.821C27.4681 10.8411 26.6824 8.94238 25.2836 7.54241C23.8849 6.14245 21.9878 5.35596 20.0097 5.35596C18.0316 5.35596 16.1345 6.14245 14.7358 7.54241C13.3371 8.94238 12.5513 10.8411 12.5513 12.821V15.8871H14.2355V12.821C14.2355 11.2882 14.8438 9.8182 15.9267 8.73436C17.0096 7.65052 18.4783 7.04163 20.0097 7.04163C21.5412 7.04163 23.0099 7.65052 24.0928 8.73436C25.1756 9.8182 25.784 11.2882 25.784 12.821V15.8871H27.4681Z" fill="#0367A6"/>
</svg>
