<svg width="30" height="30" viewBox="0 0 30 30" fill="none" xmlns="http://www.w3.org/2000/svg">
<g clip-path="url(#clip0_189_2684)">
<path d="M11.875 6.875C13.25 6.875 14.375 5.75 14.375 4.375C14.375 3 13.25 1.875 11.875 1.875C10.5 1.875 9.375 3 9.375 4.375C9.375 5.75 10.5 6.875 11.875 6.875ZM7.1875 11.125L3.75 28.75H6.375L8.5625 18.75L11.25 21.25V28.75H13.75V19.3125L11.1875 16.75L11.9375 13C13.5625 15 16 16.25 18.75 16.25V13.75C16.4375 13.75 14.4375 12.5 13.3125 10.6875L12.125 8.6875C11.6875 7.9375 10.875 7.5 10 7.5C9.6875 7.5 9.375 7.5625 9.0625 7.6875L2.5 10.375V16.25H5V12.0625L7.1875 11.125ZM16.25 2.5V11.25H20.9375V28.75H22.8125V11.25H27.5V2.5H16.25ZM22.5125 10V7.8125H18.125V5.9375H22.5125V3.75L25.625 6.875L22.5125 10Z" fill="white"/>
</g>
<defs>
<clipPath id="clip0_189_2684">
<rect width="30" height="30" fill="white"/>
</clipPath>
</defs>
</svg>
