<svg width="30" height="30" viewBox="0 0 30 30" fill="none" xmlns="http://www.w3.org/2000/svg">
<g clip-path="url(#clip0_189_2676)">
<path d="M18.75 23.125C15.6125 23.125 12.9 21.35 11.55 18.75H18.75V16.25H10.725C10.6625 15.8375 10.625 15.425 10.625 15C10.625 14.575 10.6625 14.1625 10.725 13.75H18.75V11.25H11.55C12.9 8.65 15.625 6.875 18.75 6.875C20.7625 6.875 22.6125 7.6125 24.0375 8.8375L26.25 6.625C24.2625 4.8375 21.625 3.75 18.75 3.75C13.85 3.75 9.7 6.8875 8.15 11.25H3.75V13.75H7.575C7.525 14.1625 7.5 14.575 7.5 15C7.5 15.425 7.525 15.8375 7.575 16.25H3.75V18.75H8.15C9.7 23.1125 13.85 26.25 18.75 26.25C21.6375 26.25 24.2625 25.1625 26.25 23.375L24.025 21.1625C22.6125 22.3875 20.775 23.125 18.75 23.125Z" fill="white"/>
</g>
<defs>
<clipPath id="clip0_189_2676">
<rect width="30" height="30" fill="white"/>
</clipPath>
</defs>
</svg>
