<svg width="30" height="30" viewBox="0 0 30 30" fill="none" xmlns="http://www.w3.org/2000/svg">
<g clip-path="url(#clip0_189_2657)">
<path d="M25.5125 10.5125L19.475 4.475C19.0125 4.0125 18.375 3.75 17.7125 3.75H6.25C4.875 3.75 3.75 4.875 3.75 6.25V23.75C3.75 25.125 4.875 26.25 6.25 26.25H23.75C25.125 26.25 26.25 25.125 26.25 23.75V12.2875C26.25 11.625 25.9875 10.9875 25.5125 10.5125ZM8.75 8.75H17.5V11.25H8.75V8.75ZM21.25 21.25H8.75V18.75H21.25V21.25ZM21.25 16.25H8.75V13.75H21.25V16.25Z" fill="white"/>
</g>
<defs>
<clipPath id="clip0_189_2657">
<rect width="30" height="30" fill="white"/>
</clipPath>
</defs>
</svg>
