<svg width="50" height="50" viewBox="0 0 50 50" fill="none" xmlns="http://www.w3.org/2000/svg">
<path fill-rule="evenodd" clip-rule="evenodd" d="M25.0002 10.4167C21.5483 10.4167 18.7502 13.2149 18.7502 16.6667C18.7502 20.1184 21.5483 22.9167 25.0002 22.9167C28.452 22.9167 31.2502 20.1184 31.2502 16.6667C31.2502 13.2149 28.452 10.4167 25.0002 10.4167ZM14.5835 16.6667C14.5835 10.9137 19.2472 6.25 25.0002 6.25C30.7531 6.25 35.4168 10.9137 35.4168 16.6667C35.4168 22.4196 30.7531 27.0833 25.0002 27.0833C19.2472 27.0833 14.5835 22.4196 14.5835 16.6667ZM15.5337 34.8467C13.3373 35.8221 12.5002 37.0538 12.5002 38.5417C12.5002 39.0075 12.583 39.2713 12.7028 39.4625C12.8227 39.6538 13.1088 39.9777 13.8797 40.3265C15.5275 41.0719 18.7837 41.6667 25.0002 41.6667C31.2166 41.6667 34.4729 41.0719 36.1206 40.3265C36.8916 39.9777 37.1777 39.6538 37.2975 39.4625C37.4172 39.2713 37.5002 39.0075 37.5002 38.5417C37.5002 37.0538 36.6631 35.8221 34.4666 34.8467C32.2114 33.8454 28.9006 33.3333 25.0002 33.3333C21.0997 33.3333 17.7889 33.8454 15.5337 34.8467ZM13.8427 31.0388C16.8657 29.6963 20.8464 29.1667 25.0002 29.1667C29.1539 29.1667 33.1347 29.6963 36.1577 31.0388C39.2393 32.4071 41.6668 34.8213 41.6668 38.5417C41.6668 39.514 41.4893 40.6204 40.8279 41.6756C40.1664 42.7304 39.1504 43.529 37.8381 44.1227C35.3191 45.2623 31.2837 45.8333 25.0002 45.8333C18.7166 45.8333 14.6812 45.2623 12.1623 44.1227C10.8499 43.529 9.83385 42.7304 9.1725 41.6756C8.51108 40.6204 8.3335 39.514 8.3335 38.5417C8.3335 34.8213 10.7609 32.4071 13.8427 31.0388Z" fill="#0367A6"/>
</svg>
