<svg width="186" height="79" viewBox="0 0 186 79" fill="none" xmlns="http://www.w3.org/2000/svg">
<path d="M0.92334 78.8125L8.46093 0.8125H34.8854L42.3314 78.8125H27.531L26.4407 66.1898H16.9972L16.0901 78.8125H0.92334ZM18.1734 53.7502H25.2559L21.8077 14.0677H21.0808L18.1734 53.7502Z" fill="#E84524"/>
<path d="M46.2319 56.2023V45.9404H69.1137V56.2023H46.2319Z" fill="white"/>
<path d="M75.2866 78.8125V0.8125H106.524V15.8848H91.1774V31.0487H105.889V45.7576H91.1774V63.6458H107.523V78.8096H75.2866V78.8125Z" fill="white"/>
<path d="M122.14 78.8125V53.1149L109.7 0.8125H125.136L129.494 27.237L133.853 0.8125H149.288L136.849 53.1149V78.8125H122.14Z" fill="white"/>
<path d="M153.195 78.8125V0.8125H184.433V15.8848H169.086V31.0487H183.798V45.7576H169.086V63.6458H185.432V78.8096H153.195V78.8125Z" fill="white"/>
</svg>
