<svg width="160" height="68" viewBox="0 0 160 68" fill="none" xmlns="http://www.w3.org/2000/svg">
<path d="M0 67.6394L6.53638 0H29.4509L35.9079 67.6394H23.0734L22.1279 56.6933H13.9388L13.1522 67.6394H0ZM14.9587 45.906H21.1005L18.1103 11.4945H17.48L14.9587 45.906Z" fill="#F2441D"/>
<path d="M39.2905 48.0331V39.1343H59.1329V48.0331H39.2905Z" fill="white"/>
<path d="M64.4854 67.6394V0H91.5739V13.0703H78.2654V26.22H91.023V38.9751H78.2654V54.4872H92.4399V67.6369H64.4854V67.6394Z" fill="white"/>
<path d="M105.116 67.6394V45.3552L94.3284 0H107.714L111.493 22.9146L115.273 0H128.658L117.871 45.3552V67.6394H105.116Z" fill="white"/>
<path d="M132.045 67.6394V0H159.134V13.0703H145.825V26.22H158.583V38.9751H145.825V54.4872H160V67.6369H132.045V67.6394Z" fill="white"/>
</svg>
