<svg width="275" height="275" viewBox="0 0 275 275" fill="none" xmlns="http://www.w3.org/2000/svg">
<g clip-path="url(#clip0_336_2183)">
<path fill-rule="evenodd" clip-rule="evenodd" d="M39.5044 121.343C39.5044 70.686 80.5698 29.6206 131.227 29.6206C181.884 29.6206 222.95 70.6846 222.95 121.343C222.95 172.001 181.884 213.065 131.227 213.065C80.5698 213.065 39.5044 172.001 39.5044 121.343Z" fill="white"/>
<path d="M47.1104 160.498C44.444 154.05 42.1584 146.474 40.7004 138.713C39.3522 131.525 38.6845 124.187 39.0397 117.414L39.0411 117.384C40.3951 91.7126 52.0353 69.0085 69.7603 53.0525C87.4782 37.1037 111.258 27.9088 136.902 29.2442L136.932 29.2456C162.611 30.5896 185.324 42.2284 201.284 59.9562C217.246 77.6826 226.443 101.477 225.099 127.138C224.946 129.833 224.681 132.52 224.305 135.192C223.94 137.9 223.466 140.592 222.884 143.261L207.795 140.004C208.319 137.617 208.737 135.323 209.035 133.14C209.333 130.888 209.538 128.623 209.649 126.354C210.771 104.902 203.112 85.0414 189.818 70.2768C176.524 55.5121 157.584 45.8179 136.148 44.6951L136.118 44.6937C114.682 43.5766 94.8384 51.2335 80.0794 64.5187C65.3205 77.811 55.6234 96.743 54.4934 118.17L54.492 118.2C54.1953 123.877 54.7403 129.963 55.8516 135.878C57.1171 142.616 59.0802 149.139 61.3543 154.646L47.1104 160.498Z" fill="#33527F"/>
<path fill-rule="evenodd" clip-rule="evenodd" d="M12.1323 191.032L33.7022 175.361L38.6214 182.132C40.4547 184.654 41.5503 186.379 41.907 187.304C42.472 188.783 42.5019 190.318 41.994 191.911C41.4947 193.51 40.3862 194.934 38.6685 196.182C37.1091 197.316 35.5469 197.918 33.9833 197.995C32.4296 198.062 31.0572 197.733 29.8687 197.004C28.6903 196.268 27.1752 194.627 25.3262 192.08L23.3203 189.321L15.184 195.235L12.1323 191.032ZM33.1059 182.213L26.9854 186.66L28.676 188.984C29.8117 190.548 30.6734 191.54 31.264 191.96C31.8618 192.393 32.5309 192.612 33.2728 192.624C34.0232 192.624 34.7522 192.37 35.4584 191.858C36.1746 191.337 36.6426 190.712 36.8637 189.987C37.0847 189.308 37.0812 188.575 36.8537 187.897C36.6255 187.231 35.8708 186.023 34.5939 184.261L33.1059 182.213ZM30.6691 214.461L48.5082 194.647L62.735 207.456L59.7162 210.808L49.35 201.474L45.3967 205.865L55.0281 214.539L52.0221 217.877L42.3892 209.206L37.5343 214.598L48.2514 224.248L45.2454 227.585L30.6691 214.461ZM58.2881 236.056L69.6972 217.071L63.1302 213.124L65.4528 209.259L83.0195 219.813L80.6954 223.678L74.1484 219.744L62.7393 238.734L58.2881 236.056ZM76.3327 245.312L86.3208 220.591L91.1358 222.538L81.1491 247.258L76.3327 245.312ZM94.908 251.878L100.268 230.385L92.8336 228.533L93.925 224.155L113.81 229.115L112.719 233.49L105.306 231.639L99.947 253.135L94.908 251.878ZM127.232 230.402L137.547 230.043C140.363 229.946 142.352 230.093 143.512 230.488C144.67 230.886 145.663 231.622 146.488 232.695C147.313 233.773 147.748 235.005 147.798 236.399C147.842 237.683 147.547 238.862 146.912 239.924C146.312 240.944 145.432 241.771 144.376 242.306C145.92 242.716 147.143 243.461 148.04 244.543C148.949 245.631 149.434 246.97 149.49 248.569C149.56 250.508 149.063 252.169 148.01 253.551C146.957 254.925 145.683 255.794 144.192 256.159C143.158 256.416 140.737 256.607 136.935 256.741L128.164 257.048L127.232 230.402ZM132.576 234.658L132.79 240.818L136.222 240.699C138.28 240.626 139.55 240.55 140.035 240.476C140.918 240.323 141.602 239.985 142.084 239.456C142.566 238.918 142.791 238.208 142.761 237.322C142.733 236.535 142.502 235.906 142.074 235.438C141.691 234.973 141.154 234.662 140.56 234.561C139.984 234.461 138.323 234.458 135.578 234.552L132.576 234.658ZM132.947 245.254L133.196 252.376L138.021 252.209C140.138 252.136 141.492 251.998 142.088 251.794C142.688 251.575 143.2 251.168 143.548 250.632C143.943 250.062 144.124 249.354 144.097 248.504C144.067 247.632 143.821 246.927 143.355 246.384C142.904 245.827 142.279 245.438 141.58 245.281C140.855 245.088 139.379 245.03 137.149 245.108L132.947 245.254ZM182.857 248.323L177.384 249.788L173.639 244.522L163.691 247.188L163.203 253.586L157.856 255.021L160.656 226.669L165.983 225.242L182.857 248.323ZM170.861 240.614L164.882 231.976L164.063 242.436L170.861 240.614ZM196.262 241.632L185.863 222.073L179.097 225.671L176.98 221.687L195.075 212.068L197.193 216.05L190.447 219.635L200.849 239.193L196.262 241.632ZM214.814 230.736L198.038 210.019L212.914 197.971L215.752 201.479L204.912 210.256L208.628 214.849L218.705 206.692L221.53 210.183L211.457 218.34L216.024 223.979L227.231 214.904L230.06 218.395L214.814 230.736ZM251.869 192.986L248.303 197.389L242.178 195.33L235.696 203.335L239.065 208.797L235.582 213.102L221.181 188.518L224.654 184.232L251.869 192.986ZM237.632 193.802L227.716 190.327L233.205 199.272L237.632 193.802ZM232.451 173.305L234.646 168.599L247.735 174.703C249.766 175.651 251.117 176.209 251.789 176.378C252.951 176.671 254.005 176.562 254.949 176.054C255.902 175.534 256.677 174.634 257.273 173.35C257.78 172.26 257.995 171.279 257.906 170.402C257.831 169.563 257.454 168.781 256.844 168.201C256.231 167.599 254.721 166.738 252.313 165.616L238.946 159.382L241.151 154.657L253.841 160.575C257.084 162.086 259.334 163.387 260.589 164.478C261.84 165.551 262.581 167.017 262.813 168.878C263.036 170.717 262.605 172.813 261.509 175.159C260.372 177.597 259.115 179.33 257.736 180.36C256.353 181.375 254.85 181.878 253.219 181.875C251.581 181.855 248.956 181.004 245.342 179.317L232.451 173.305Z" fill="white"/>
<path fill-rule="evenodd" clip-rule="evenodd" d="M39.6987 163.875C39.6987 163.875 112.763 110.892 124.042 17.9517C124.042 17.9517 170.513 103.442 128.054 150.876L39.6987 163.875Z" fill="#ECD39D"/>
<path fill-rule="evenodd" clip-rule="evenodd" d="M142.016 56.9712C142.016 56.9712 195.571 89.4794 202.264 139.206L134.748 149.728C134.748 149.728 161.527 119.696 143.553 61.5565L142.016 56.9712Z" fill="#ECD39D"/>
<path fill-rule="evenodd" clip-rule="evenodd" d="M53.0864 165.985C53.0864 165.985 209.142 155.85 222.531 144.754C222.531 144.754 215.264 166.555 204.558 176.116C204.558 176.116 179.5 169.994 154.831 182.811C154.831 182.811 117.739 202.319 86.5591 188.93L62.0745 182.811L53.0864 165.985Z" fill="#33527F"/>
<path fill-rule="evenodd" clip-rule="evenodd" d="M94.9722 195.627C94.9722 195.627 120.213 198.881 140.87 193.334C140.87 193.334 178.353 176.301 195.571 178.41C195.571 178.41 165.929 215.893 103.385 199.067L94.9722 195.627Z" fill="#33527F"/>
</g>
<defs>
<clipPath id="clip0_336_2183">
<rect width="275" height="275" fill="white"/>
</clipPath>
</defs>
</svg>
