<svg width="258" height="132" viewBox="0 0 258 132" fill="none" xmlns="http://www.w3.org/2000/svg">
<mask id="mask0_335_2148" style="mask-type:alpha" maskUnits="userSpaceOnUse" x="0" y="0" width="258" height="132">
<g clip-path="url(#clip0_335_2148)">
<path fill-rule="evenodd" clip-rule="evenodd" d="M166.858 48.2288C165.638 46.5007 165.427 43.4443 162.954 43.1727C160.553 42.4827 158.164 41.7466 155.741 41.1499L141.508 43.6151L139.84 51.7784L162.855 54.9724L168.859 59.2324L184.536 61.0058L191.874 58.1674C184.269 55.5553 176.48 53.4752 169.089 50.2221C168.18 49.7769 167.55 48.9622 166.858 48.2288Z" fill="#DB0026"/>
<path d="M194.82 57.8138C194.306 57.1007 193.477 56.8162 192.904 56.5419C192.343 56.2602 192.424 55.6792 191.955 55.5102C191.476 55.3467 190.637 56.3867 189.985 56.1706C189.334 55.9434 189.382 54.6484 188.838 54.4572C188.281 54.2706 187.313 55.2414 186.807 55.0687C186.297 54.9116 186.198 53.5511 185.706 53.3784C185.22 53.2204 184.187 54.1875 183.682 54.0212C183.176 53.8402 183.144 52.5157 182.582 52.3189C182.022 52.136 181.039 53.1262 180.551 52.947C180.046 52.7817 179.997 51.4599 179.461 51.2678C178.918 51.084 177.924 52.0548 177.423 51.8802C176.908 51.7028 176.767 50.3451 176.298 50.1807C175.817 50.0246 174.882 50.8263 174.12 50.7801C168.834 50.2555 166.813 46.7179 166.453 47.7644C166.1 48.7896 167.555 51.2844 169.383 52.1268C170.841 52.8011 186.584 57.4397 186.997 57.6466C187.399 57.8581 188.393 58.3292 188.039 58.9397C187.492 59.7211 185.954 58.9489 185.563 58.6035C185.167 58.2534 185.257 58.126 184.886 58.0197C184.042 57.8073 183.574 59.4431 182.682 59.2242C181.869 59.0302 181.927 57.2938 181.102 57.0905C180.191 56.8559 179.779 58.5019 178.913 58.2876C178.194 58.1149 178.096 56.3461 177.324 56.1484C176.439 55.9203 176.037 57.5708 175.114 57.3418C174.321 57.1441 174.365 55.4187 173.536 55.2063C172.707 54.9975 172.128 56.5973 171.345 56.408C170.559 56.214 170.445 54.4517 169.748 54.2762C169.033 54.1071 168.472 55.0031 167.512 55.1361C167.512 55.1361 164.758 55.9286 160.404 51.0886C156.042 46.2588 154.253 45.3204 151.769 47.2878C147.716 50.5012 145.199 48.3768 144.464 47.4217C143.583 46.3262 144.506 45.3204 144.506 45.3204C144.506 45.3204 145.793 47.4355 147.414 47.4725C150.026 47.5556 151.995 43.764 156.471 43.6966C162.14 43.4795 163.619 45.6224 165.168 45.7933C166.604 45.9429 167.083 45.6963 168.076 45.0821H168.071C168.874 44.7782 169.573 46.4306 170.415 46.0981C171.306 45.7406 170.655 44.0753 171.613 43.691C172.51 43.3493 173.095 45.0239 173.952 44.684C174.854 44.333 174.279 42.6214 175.146 42.288C176.037 41.9453 176.558 43.6365 177.483 43.2754C178.413 42.9235 177.813 41.2286 178.658 40.8877C179.532 40.5487 180.163 42.2132 181.02 41.8881C181.833 41.5796 181.368 39.8071 182.214 39.4847C183.092 39.1494 183.659 40.8194 184.595 40.4536C185.364 40.1682 184.938 38.3939 185.736 38.0724C186.533 37.7556 187.273 39.4006 188.102 39.07C188.88 38.7652 188.425 37.0019 189.252 36.6722C190.129 36.3359 190.805 37.9801 191.633 37.6697C192.454 37.3566 191.831 35.9342 192.901 35.3698C192.901 35.3698 194.381 34.8516 194.288 33.6952C194.276 33.5012 193.97 31.0295 191.532 30.5058C189.186 30.0043 170.67 35.4539 170.431 35.1398C168.727 31.556 166.543 32.5526 166.21 32.6321C165.872 32.7244 163.804 33.6601 161.515 32.7244C157.018 30.5585 153.428 36.0662 150.966 35.3412C148.698 34.6632 146.964 35.0539 146.013 35.3984C145.142 35.7189 143.731 36.9252 140.74 35.8307C117.62 27.431 99.5512 34.774 99.5512 34.774C89.3635 38.3957 88.0597 34.774 88.0597 34.774C88.0597 34.774 84.7066 29.9276 108.314 24.1474C142.244 15.8529 143.268 2.12734 142.866 1.2591C142.309 0.000155204 142.096 1.48355 140.979 2.84779C140.042 3.98205 138.952 3.42139 138.952 3.42139C137.884 2.87643 137.201 4.17324 137.201 4.17324C137.201 4.17324 135.828 6.44175 134.613 5.15232C133.446 3.91 131.897 6.7133 131.318 6.82414C130.624 6.95345 130.286 6.59323 129.356 6.13879C127.962 5.48299 126.465 8.18561 125.7 8.37681C124.527 8.66315 123.703 6.90635 122.696 7.64712C119.68 9.8639 119.206 10.1715 118.394 9.30971C117.795 8.65668 117.706 7.95008 115.692 10.0025C113.977 11.7509 113.157 12.0788 112.469 10.9667C111.761 9.84728 111.943 8.31862 108.997 11.327C107.591 12.7633 106.872 12.791 106.066 12.1453C105.46 11.6604 105.464 9.34665 103.351 11.4415C101.437 13.3258 100.046 14.1524 99.5044 12.4788C98.9054 10.5982 96.6486 12.8251 96.127 13.3498C95.5853 13.8735 94.4257 15.2599 93.6124 13.8292C92.7999 12.3892 90.8538 14.5385 89.6968 15.9019C88.8036 16.9613 88.0823 16.1439 87.1396 15.4714C86.0694 14.69 82.8639 19.4515 82.5739 19.736C82.2806 20.0075 82.0575 19.736 81.3232 19.0737C80.1948 18.0558 77.1507 23.7123 76.6576 24.0808C76.6576 24.0808 76.4493 24.5695 75.6195 23.7262C74.439 22.531 68.1694 31.3122 65.8032 41.248C62.7765 53.9852 67.5991 63.7538 67.5991 63.7538C67.5991 63.7538 69.0479 63.8 69.665 62.759L70.6033 60.5072C71.3645 58.6303 72.6119 59.2205 72.6119 59.2205L69.6555 68.5855C69.1885 69.8186 69.4706 71.5633 70.5035 73.213C71.4765 74.87 72.1475 75.9904 72.9278 76.7608C75.3279 79.166 75.0822 76.3211 75.1447 75.9664C75.4259 74.4433 77.0109 75.6127 78.2548 76.3424C80.5124 77.6909 80.2616 74.713 80.7564 73.7423C81.1001 73.0467 82.2103 73.0153 83.415 74.0896C84.3525 74.9236 85.2856 72.0981 85.2856 72.0981C86.4557 66.0759 83.7058 65.3795 82.2189 65.2908L79.2087 65.1448C79.2087 65.1448 79.4066 64.2286 79.72 63.3705L79.8545 62.7627C83.1373 54.0573 77.6506 52.3771 76.0092 52.5157C74.1986 52.6875 74.3253 51.4599 74.3253 51.4599C74.3253 51.4599 84.2414 49.3817 82.3925 60.5727C82.3925 60.5727 82.028 62.5217 81.8084 63.5377L84.5339 63.8767C86.8784 64.1879 87.295 67.1399 87.295 67.1399C87.295 67.1399 95.9204 69.5664 100.812 68.5966C100.812 68.5966 102.999 68.0424 103.606 66.5941C103.606 66.5941 106.774 58.6506 116.023 58.3153C116.023 58.3153 116.349 59.3433 114.871 59.8791C113.1 60.5145 107.196 61.0133 105.969 68.2289V68.2576C105.836 69.4417 106.134 71.9633 108.547 73.1317C110.604 74.1191 111.328 78.1038 111.755 79.1798C112.953 82.2344 114.746 79.3147 114.746 79.3147C114.746 79.3147 115.883 76.8485 116.857 78.2165C118.504 80.5228 119.27 79.3609 119.644 77.8923C120.053 76.3073 120.65 75.6154 122.375 77.5431C123.111 78.3799 124.557 77.7334 124.701 76.3017C125.006 73.1493 127.007 75.6552 127.293 75.7771C127.636 75.9156 129.732 75.4141 128.559 71.8589C128.559 71.8589 126.975 68.4709 119.833 67.0097C118.158 66.6717 118.424 65.3804 118.424 65.3804L119.997 65.6159C120.466 65.6972 124.619 66.1877 125.062 66.2625C142.483 68.0913 155.702 61.8031 156.099 61.3551C169.631 64.114 188.033 63.1738 191.488 61.8492C194.96 60.5469 195.218 58.3892 194.819 57.8138H194.82ZM166.878 34.8341C167.161 34.3492 167.428 34.0748 167.674 33.9427C168.724 33.3073 169.394 35.2959 169.267 35.3689C169.261 35.3726 169.236 35.3809 169.226 35.3855C169.224 35.3883 169.224 35.3957 169.222 35.3984C169.057 35.4834 167.032 36.0949 166.832 35.9545C166.431 35.6589 166.878 34.8341 166.878 34.8341ZM159.184 35.4631C159.184 35.4631 159.444 35.1121 159.951 34.9338C160.451 34.7399 161.206 34.7075 162.205 35.3929C163.356 36.1706 163.326 36.7784 163.326 36.7784C163.278 36.8015 163.229 36.8219 163.179 36.8393C162.346 37.1829 158.926 37.6291 158.926 37.6291C158.731 37.2907 158.65 36.8917 158.697 36.4978C158.744 36.104 158.916 35.739 159.184 35.4631ZM95.403 17.8545C95.9777 18.3255 95.4274 21.0402 95.0177 20.6402L92.0647 18.9776C92.0647 18.9776 94.8145 17.3973 95.403 17.8545ZM90.6004 19.5882C91.1811 20.0482 90.6368 22.7683 90.2254 22.3638L87.2803 20.6984C87.2811 20.6984 90.0171 19.1162 90.6004 19.5882ZM88.939 24.8946C89.5223 25.3583 88.9755 28.0831 88.5588 27.6896L85.6094 26.0039C85.6094 26.0039 88.3522 24.4337 88.939 24.8946ZM86.1284 32.0197L83.1755 30.3506C83.1755 30.3506 85.9218 28.7675 86.5043 29.233C87.0945 29.6967 86.5303 32.4196 86.1284 32.0197ZM85.5729 37.3945L82.6278 35.7245C82.6278 35.7245 85.3681 34.1487 85.9522 34.6041C86.5364 35.0641 85.9921 37.7759 85.572 37.3935L85.5729 37.3945ZM85.5182 21.4798C86.1041 21.9426 85.5512 24.6507 85.1398 24.2656L82.1851 22.591C82.1851 22.591 84.9367 21.0097 85.5182 21.4798ZM82.9567 25.6169C83.5348 26.0787 82.9871 28.7878 82.58 28.4026L79.6305 26.7336C79.6305 26.7336 82.3734 25.1477 82.9567 25.6169ZM77.6932 32.1074C77.6932 32.1074 80.4447 30.5187 81.0202 30.9889C81.607 31.4489 81.0549 34.1635 80.6426 33.77L77.6932 32.1074ZM79.9534 38.9056L77.0109 37.23C77.0109 37.23 79.7555 35.658 80.3354 36.1217C80.9213 36.5835 80.3718 39.2953 79.9534 38.9056ZM77.8546 27.5012C78.4362 27.9537 77.8867 30.6721 77.4744 30.2795L74.5354 28.6049C74.5354 28.6049 77.2652 27.0329 77.8546 27.5012ZM75.202 32.9748C75.7862 33.4347 75.2385 36.1651 74.8166 35.7633L71.8741 34.097C71.8749 34.097 74.6187 32.5277 75.202 32.9748ZM71.3246 39.4588C71.3246 39.4588 74.0692 37.8886 74.6508 38.3504C75.2393 38.8086 74.6795 41.5315 74.275 41.1362L71.3246 39.4588ZM76.5865 45.5919L73.6396 43.921C73.6396 43.921 76.3859 42.3388 76.9692 42.8034C77.5525 43.2689 76.9953 45.9799 76.5865 45.5919ZM80.8119 49.2358L77.865 47.5713C77.865 47.5713 80.6123 45.9891 81.1956 46.4482C81.7736 46.9044 81.2155 49.6375 80.8119 49.2358ZM82.133 43.5488L79.1844 41.8724C79.1844 41.8724 81.9308 40.3021 82.5141 40.752C83.0974 41.2166 82.5444 43.9303 82.133 43.5488ZM86.0538 51.6899L83.1112 50.0209C83.1112 50.0209 85.842 48.4423 86.4314 48.9051C87.0129 49.3715 86.4722 52.0732 86.0538 51.6899ZM87.4686 46.4509L84.5244 44.7828C84.5244 44.7828 87.2646 43.2126 87.8462 43.6763C88.4278 44.1325 87.8861 46.8518 87.4686 46.4509ZM88.4443 41.5001L85.4991 39.8283C85.4991 39.8283 88.2403 38.2581 88.8288 38.7199C89.4129 39.1864 88.8548 41.8899 88.4443 41.5001ZM92.5872 51.0572L89.6412 49.378C89.6412 49.378 92.3833 47.8106 92.9709 48.2659C93.5611 48.7277 93.0021 51.4535 92.5872 51.0572ZM93.8632 45.8413L90.9189 44.176C90.9189 44.176 93.6644 42.5882 94.2477 43.0583C94.8224 43.5063 94.2703 46.2311 93.8632 45.8413ZM94.9308 40.316L91.9857 38.646C91.9857 38.646 94.7286 37.0804 95.3162 37.5349C95.8952 37.9985 95.3423 40.7104 94.9308 40.316ZM99.0686 50.0791L96.1139 48.4091C96.1139 48.4091 98.8603 46.8287 99.4497 47.2887C100.028 47.7644 99.4696 50.4818 99.0686 50.0791ZM100.058 44.5002L97.1139 42.8219C97.1139 42.8219 99.8602 41.248 100.441 41.7052C101.026 42.1735 100.472 44.877 100.059 44.4992L100.058 44.5002ZM101.086 38.7716L98.1399 37.0998C98.1399 37.0998 100.882 35.5268 101.468 35.985C102.049 36.4588 101.499 39.1651 101.086 38.7716ZM105.52 47.8734L102.571 46.2191C102.571 46.2191 105.317 44.6396 105.893 45.0987C106.485 45.5587 105.932 48.2696 105.52 47.8734ZM106.327 42.3776L103.373 40.7169C103.373 40.7169 106.117 39.1402 106.697 39.5946C107.296 40.0611 106.735 42.7868 106.327 42.3776ZM107.349 36.9927L104.394 35.3319C104.394 35.3319 107.145 33.7451 107.723 34.2023C108.306 34.6706 107.755 37.3954 107.349 36.9927ZM111.863 46.7123L108.915 45.0405C108.915 45.0405 111.653 43.4601 112.242 43.9229C112.833 44.3893 112.277 47.0975 111.863 46.7123ZM112.667 41.5814L109.717 39.917C109.717 39.917 112.466 38.3255 113.044 38.7993C113.627 39.2482 113.076 41.9776 112.667 41.5814ZM113.637 36.1069L110.684 34.4406C110.684 34.4406 113.431 32.8454 114.019 33.3211C114.602 33.7857 114.056 36.4939 113.637 36.1069ZM117.721 46.8075L114.78 45.1384C114.78 45.1384 117.522 43.5534 118.105 44.0263C118.689 44.4826 118.135 47.1972 117.721 46.8075ZM118.694 41.2988L115.739 39.6334C115.739 39.6334 118.491 38.0447 119.075 38.5158C119.653 38.9813 119.101 41.6904 118.694 41.2988ZM119.798 35.815L116.848 34.1487C116.848 34.1487 119.595 32.56 120.179 33.0329C120.768 33.492 120.21 36.2113 119.797 35.815H119.798ZM123.863 46.8075L120.914 45.1301C120.914 45.1301 123.657 43.5543 124.239 44.0272C124.821 44.4826 124.28 47.1972 123.863 46.8075ZM124.807 41.6045L121.864 39.929C121.864 39.929 124.604 38.3661 125.186 38.8114C125.771 39.2796 125.221 42.0007 124.807 41.6045ZM125.922 36.2787L122.982 34.6115C122.982 34.6115 125.724 33.0376 126.31 33.492C126.885 33.9538 126.333 36.6722 125.922 36.2787ZM129.637 47.5935L126.688 45.9069C126.688 45.9069 129.434 44.3431 130.017 44.8096C130.607 45.2622 130.056 47.9824 129.637 47.5935ZM130.679 42.5475L127.732 40.884C127.732 40.884 130.482 39.3064 131.06 39.7683C131.649 40.2384 131.08 42.9466 130.679 42.5475ZM131.805 37.3935L128.85 35.7319C128.85 35.7319 131.599 34.1524 132.186 34.6032C132.766 35.0631 132.206 37.775 131.805 37.3926V37.3935ZM136.4 43.6365L133.455 41.9841C133.455 41.9841 136.197 40.401 136.785 40.8545C137.364 41.3219 136.812 44.0356 136.4 43.6365Z" fill="#004526"/>
<path d="M58.9441 91.1689C58.3278 89.4297 57.1586 88.6806 55.0172 88.6464C54.8219 88.6399 44.9136 88.6556 44.9136 88.6556L30.2461 131.151H37.3854C37.9673 131.204 38.5523 131.101 39.0867 130.85C40.4755 130.176 41.1569 128.463 41.3548 127.878C41.3548 127.893 43.3504 121.957 43.4875 121.569L58.2427 121.564C58.5508 122.565 61.2399 131.133 61.2399 131.133H70.9025L64.7736 110.452L58.9441 91.1689ZM55.9685 112.841L46.0256 112.843C47.0984 109.719 49.7684 101.814 50.9081 98.6145C51.8933 101.842 55.9425 112.736 55.9685 112.841ZM128.469 88.3157H128.464C117.035 88.3324 108.745 97.4618 108.745 110.012C108.745 122.311 117.218 131.589 128.469 131.589C139.714 131.589 148.532 122.118 148.532 110.012C148.532 97.8442 139.714 88.3157 128.469 88.3157ZM128.756 122.109C122.93 122.109 118.364 116.748 118.364 109.898C118.364 103.112 122.832 97.9994 128.749 97.9994C134.624 97.9994 138.884 103 138.884 109.898C138.883 116.864 134.526 122.109 128.756 122.109ZM174.388 106.201L174.013 106.084C174.023 106.09 170.296 104.883 170.286 104.872L169.73 104.662C166.686 103.491 164.525 102.51 164.525 100.624V100.486C164.827 97.3556 170.288 97.3223 170.34 97.3223C173.351 97.3223 175.666 97.8119 178.598 99.0662L178.661 99.0911L178.787 99.1299C179.464 99.2759 180.057 99.2962 180.537 99.1826L181.348 98.8556C182.514 98.1739 183.673 94.5606 184.117 93.0393L184.261 92.5516L183.903 92.2007C183.762 92.0575 182.908 91.3093 179.801 90.0762C176.642 88.8164 172.167 88.6196 172.167 88.6196L169.959 88.6095C158.429 88.6095 154.028 96.1807 153.888 101.265C153.793 106.332 156.503 108.939 160.599 111.307C162.313 112.318 165.443 113.247 167.713 113.922C167.701 113.911 170.062 114.656 170.062 114.656C174.357 116.091 175.999 117.685 175.693 120.159C175.556 120.976 174.105 122.329 170.807 122.329C168.299 122.329 166.031 121.919 163.671 121.043C162.538 120.563 161.365 119.945 160.126 119.162L160.066 119.123L159.94 119.064C159.254 118.792 158.64 118.678 158.113 118.725L157.206 118.933C155.883 119.461 154.042 123.037 153.306 124.549L153.016 125.147L153.517 125.569C153.605 125.632 155.654 127.365 157.394 128.45C159.442 129.658 161.743 130.532 164.459 131.117C165.555 131.33 167.294 131.597 170.019 131.597C178.953 131.597 185.443 126.782 186.19 119.611C186.515 113.105 182.763 108.86 174.388 106.201ZM193.487 88.7083C193.117 88.7018 191.167 88.7425 190.046 89.8453C189.531 90.3496 189.261 91.0239 189.261 91.7832L189.255 98.5065C189.255 98.5065 200.034 98.4972 201.445 98.4972V131.167L211.431 131.158V98.4972C212.762 98.4954 219.276 98.4954 219.276 98.4954C219.645 98.4954 221.591 98.451 222.715 97.3528C222.967 97.1056 223.167 96.8049 223.303 96.4702C223.438 96.1354 223.507 95.774 223.503 95.4094V88.7083H193.487ZM22.2058 121.55H10.9964C10.9964 119.983 10.9652 92.584 10.9652 92.584C10.9652 91.3814 10.6266 90.4272 9.94699 89.7603C8.86111 88.675 7.24402 88.6806 6.64076 88.6944L0.750488 88.6806L0.765244 131.15H25.7551L25.7724 124.401C25.7724 123.538 25.4261 121.55 22.2058 121.55ZM93.6555 97.7361C96.0773 97.5643 98.1153 97.7361 100.038 98.2959C101.07 98.6626 102.002 98.7355 102.792 98.4981L103.589 98.1213C104.707 97.3888 105.507 93.6554 105.885 91.5042L105.972 90.9999L105.564 90.6877C105.462 90.6092 105.144 90.3727 101.526 89.3336C99.0218 88.6265 96.4414 88.2734 93.8508 88.2834L93.6911 88.2853C85.4208 88.2853 72.9667 94.0941 72.6099 110.089V110.18C72.9667 126.18 85.4216 131.987 93.6972 131.987L93.8508 131.994C95.2969 132 98.2256 131.874 101.526 130.931C105.145 129.901 105.462 129.661 105.568 129.581L105.972 129.276L105.886 128.769C105.508 126.606 104.708 122.881 103.59 122.143V122.137L102.796 121.765C102.003 121.535 101.07 121.61 100.023 121.984C98.111 122.531 96.0738 122.708 93.626 122.536C87.3625 121.884 83.6006 117.348 83.3167 110.098C83.5997 102.918 87.3625 98.3827 93.6546 97.7361H93.6555ZM253.086 131.131C254.629 131.095 257.249 130.128 257.249 126.865L257.22 121.535L239.622 121.544C239.622 121.544 239.652 115.435 239.652 114.423H254.178L254.153 104.598C254.153 104.598 241.115 104.615 239.677 104.615C239.674 103.453 239.677 99.6758 239.677 98.5074C241.115 98.5074 253.012 98.4898 253.012 98.4898C253.378 98.4963 255.369 98.4981 256.447 97.3537C257.2 96.5502 257.235 95.088 257.235 94.326V88.7166H229.554L229.559 131.165L253.086 131.131Z" fill="black"/>
</g>
</mask>
<g mask="url(#mask0_335_2148)">
<rect width="258" height="132" fill="white"/>
</g>
<defs>
<clipPath id="clip0_335_2148">
<rect width="258" height="132" fill="white"/>
</clipPath>
</defs>
</svg>
