<svg width="516" height="219" viewBox="0 0 516 219" fill="none" xmlns="http://www.w3.org/2000/svg">
<path d="M0 218.137L21.0798 0H94.9793L115.803 218.137H74.4116L71.3625 182.836H44.9527L42.4157 218.137H0ZM48.2419 148.047H68.0493L58.4057 37.0698H56.3729L48.2419 148.047Z" fill="#F2441D"/>
<path d="M126.711 154.905V126.207H190.703V154.905H126.711Z" fill="#0067A7"/>
<path d="M207.965 218.137V0H295.326V42.1517H252.406V84.5594H293.549V125.695H252.406V175.721H298.119V218.129H207.965V218.137Z" fill="#0067A7"/>
<path d="M338.998 218.137V146.27L304.209 0H347.377L359.566 73.8995L371.754 0H414.922L380.133 146.27V218.137H338.998Z" fill="#0067A7"/>
<path d="M425.847 218.137V0H513.207V42.1517H470.287V84.5594H511.43V125.695H470.287V175.721H516V218.129H425.847V218.137Z" fill="#0067A7"/>
</svg>
