<svg width="337" height="52" viewBox="0 0 337 52" fill="none" xmlns="http://www.w3.org/2000/svg">
<path d="M153.79 43.5074C151.685 43.9153 149.4 43.6481 147.57 42.4905C145.434 41.2066 144.009 38.9058 143.738 36.4513C143.704 35.9513 143.702 35.4498 143.733 34.9496C144.045 32.1275 146.183 29.5438 149.004 28.8946C152.47 32.6686 155.936 36.4383 159.422 40.1924C157.999 41.8948 155.973 43.0747 153.79 43.5074ZM169.441 38.7233C169.56 37.1748 169.671 35.6078 170.176 34.1219C170.768 32.2514 171.815 30.3157 173.68 29.4422C174.062 29.3288 174.457 29.2468 174.854 29.2115C174.858 28.8556 174.836 28.4947 174.926 28.1453C174.818 27.6565 174.97 27.1584 174.917 26.6631C174.845 25.92 174.854 25.1732 174.875 24.4276C174.93 23.4981 174.799 22.548 174.926 21.6263C174.871 21.3928 174.854 21.157 174.849 20.921C172.532 20.899 170.22 21.5377 168.226 22.6965C165.221 24.4434 162.947 27.4217 162.153 30.7955C157.671 26.0076 153.274 21.1425 148.804 16.3469C147.853 15.2869 147.432 13.8193 147.615 12.4218C147.898 10.9111 148.861 9.51752 150.267 8.82825C151.206 8.31718 152.312 8.23885 153.357 8.36924C154.967 8.63128 156.36 9.7653 157.021 11.2332C159.509 9.95426 162.051 8.77219 164.528 7.46473C164.099 6.66809 163.651 5.87546 163.088 5.16367C160.613 1.92581 156.555 -0.0946906 152.441 0.00341873C147.683 -0.0766705 143.054 2.69367 140.813 6.83228C139.394 9.38087 138.867 12.4052 139.356 15.2742C139.786 17.9489 141.083 20.4777 143.01 22.3954C140.779 23.7041 138.868 25.5551 137.53 27.7581C135.992 30.2674 135.228 33.2224 135.316 36.1527C135.409 39.0427 136.273 41.9144 137.838 44.3586C140.173 48.0802 144.094 50.781 148.431 51.6585C150.64 52.1147 152.933 52.0885 155.157 51.7301C158.944 51.0378 162.46 49.1257 165.142 46.3946C166.259 47.6695 167.438 48.8909 168.579 50.1463C172.373 50.1398 176.168 50.1618 179.963 50.1358C176.441 46.3466 172.943 42.5336 169.441 38.7233ZM18.7373 26.9134C17.3156 28.4163 15.3095 29.2765 13.2585 29.5048C11.7842 29.5661 10.3084 29.5203 8.8328 29.5336V9.36785C10.5639 9.4109 12.3278 9.21919 14.0245 9.64541C16.0744 10.0912 17.9778 11.2031 19.302 12.821C22.5877 16.8056 22.3365 23.2023 18.7373 26.9134ZM29.8017 15.0592C28.8605 10.9947 26.5225 7.21696 23.1276 4.71767C19.88 2.29372 15.79 1.11541 11.7488 1.09714C7.83216 1.09839 3.91605 1.09714 0.000947814 1.09714C-0.000315938 17.4486 -0.000315938 33.7961 0.000947814 50.1465H8.8328C8.8328 46.0535 8.83128 41.9589 8.8328 37.8671C10.9455 37.8268 13.0767 37.9872 15.1751 37.6744C18.615 37.1959 21.8982 35.6471 24.4085 33.2682C27.7744 30.1307 29.8161 25.7078 30.2362 21.1703C30.3416 19.125 30.3085 17.0559 29.8017 15.0592ZM65.0869 1.09814C68.0565 1.09689 71.0266 1.10064 73.9961 1.09689C74.0161 1.36919 74.0333 1.64174 74.0409 1.9153C74.0345 2.45765 74.0368 3.00001 74.0345 3.54486C74.0356 4.08722 74.0396 4.63082 74.0345 5.17418C74.0345 5.96431 74.0396 6.75419 74.0345 7.54407C74.0356 7.79185 74.0356 8.03962 74.0371 8.2874C74.0017 9.47222 74.054 10.6583 74.0345 11.8446C74.0477 13.4754 74.0017 15.1045 74.0345 16.7341C74.0421 19.2551 74.0356 21.7747 74.0345 24.2932C74.0356 24.7365 74.0345 25.1797 74.0396 25.6267C74.0079 26.1703 74.0079 26.7152 74.0396 27.2588C74.0345 27.6537 74.0356 28.0474 74.0356 28.4426C73.9767 30.163 74.119 31.8864 73.937 33.6031C73.6804 36.5727 72.8628 39.5184 71.3685 42.1126C69.8402 44.7981 67.5697 47.0621 64.8577 48.5755C61.8315 50.2754 58.3256 51.0458 54.8622 51.0458C51.009 51.0873 47.0901 50.1748 43.8188 48.1128C40.6715 46.1536 38.2423 43.1385 36.8997 39.7142C35.7861 36.9401 35.3569 33.9327 35.3792 30.9609C35.3807 21.0071 35.3792 11.0532 35.3792 1.09814C38.3715 1.09689 41.3638 1.09689 44.3558 1.09689C44.3574 11.2552 44.3558 21.411 44.3574 31.5671C44.4468 34.4153 45.0656 37.4236 46.9913 39.6361C48.5672 41.4869 50.9721 42.4737 53.3747 42.6599C55.8787 42.9037 58.5521 42.5688 60.7136 41.2171C62.45 40.1351 63.6415 38.3584 64.2705 36.4513C64.7536 35.0735 64.9315 33.6161 65.051 32.1705C65.1289 28.6053 65.0629 25.0401 65.0842 21.4723C65.0842 14.6838 65.0844 7.88946 65.0869 1.09814ZM107.807 1.10715C110.779 1.08788 113.752 1.10214 116.721 1.09689C116.724 14.6317 116.721 28.162 116.724 41.6929C121.808 41.6994 126.895 41.6786 131.98 41.7019C131.976 44.515 131.978 47.3266 131.98 50.1398C123.921 50.1528 115.865 50.1528 107.808 50.1398C107.808 33.7961 107.808 17.4509 107.807 1.10715ZM206.215 37.0509C205.991 38.2122 205.355 39.3075 204.405 40.0308C203.275 40.9238 201.864 41.3698 200.466 41.6173C197.783 42.0565 195.056 41.8298 192.349 41.8871C192.353 37.6323 192.347 33.3764 192.353 29.1229C194.371 29.1359 196.388 29.0878 198.405 29.1554C200.361 29.2765 202.404 29.5699 204.06 30.6741C205.234 31.4237 206.031 32.6946 206.241 34.0569C206.395 35.0498 206.386 36.0608 206.215 37.0509ZM192.349 9.09405C194.334 9.12158 196.335 8.98693 198.304 9.32606C199.716 9.58434 201.156 10.1357 202.11 11.2462C203.012 12.3124 203.31 13.749 203.275 15.1098C203.31 16.6545 202.792 18.2788 201.607 19.328C200.357 20.4217 198.663 20.8454 197.037 20.9628C195.473 20.9966 193.913 20.9678 192.349 20.977V9.09405ZM214.063 29.3942C212.85 26.8939 210.684 24.9059 208.179 23.7013C208.189 23.6525 208.198 23.6035 208.205 23.5542C210.032 21.9782 211.356 19.826 211.866 17.4744C212.251 15.7655 212.163 13.9925 211.889 12.2733C211.536 10.5972 210.901 8.96891 209.94 7.54057C208.554 5.46876 206.57 3.81216 204.319 2.7252C202.509 1.88927 200.522 1.54013 198.553 1.30412C197.355 1.22078 196.16 1.12417 194.962 1.10314C191.135 1.08888 187.305 1.10214 183.474 1.09689V50.1463C189.102 50.1188 194.729 50.2039 200.353 50.1032C204.346 49.7774 208.325 48.2549 211.21 45.4496C213.453 43.338 214.966 40.4675 215.34 37.4199C215.617 34.7018 215.285 31.8672 214.063 29.3942ZM220.138 1.09689C230.286 1.09689 240.431 1.09689 250.575 1.09814C250.571 3.85521 250.588 6.61178 250.567 9.3691C243.39 9.37436 236.213 9.35209 229.035 9.38087C229.039 13.2428 229.039 17.1046 229.035 20.9665C235.847 20.9928 242.66 20.9705 249.472 20.977C249.475 23.6926 249.472 26.4088 249.475 29.1204C242.662 29.1294 235.851 29.1139 229.039 29.1294C229.035 33.3764 229.041 37.6258 229.035 41.8741C236.213 41.9041 243.393 41.8781 250.575 41.8871C250.578 44.6414 250.575 47.392 250.575 50.1463H220.138V1.09689ZM270.73 29.0903C272.716 24.1603 274.714 19.2356 276.672 14.2953C278.653 19.2226 280.601 24.1641 282.599 29.0876C278.643 29.1001 274.686 29.1012 270.73 29.0903ZM280.221 1.20876C280.171 0.950474 279.857 1.01054 279.677 0.997526C277.669 1.00278 275.662 1.00278 273.659 0.997526C273.468 1.01955 273.185 0.944217 273.091 1.15395C266.364 17.4831 259.628 33.8113 252.905 50.142C256.1 50.1525 259.296 50.146 262.491 50.146C264.163 45.8953 265.826 41.6391 267.494 37.3868C273.606 37.3908 279.717 37.3868 285.827 37.3908C287.494 41.6431 289.145 45.9028 290.824 50.1485C294.23 50.1395 297.635 50.1551 301.042 50.1395C294.105 33.8284 287.161 17.5187 280.221 1.20876ZM324.852 19.4063C324.396 21.0031 323.318 22.4161 321.87 23.2568C319.772 24.5082 317.248 24.8146 314.838 24.8121C313.904 24.8081 312.972 24.8081 312.041 24.8081V9.36785C314.579 9.37937 317.158 9.22569 319.639 9.88793C320.705 10.1993 321.762 10.6047 322.665 11.2645C323.82 12.0661 324.63 13.3057 324.972 14.655C325.356 16.2127 325.287 17.8668 324.852 19.4063ZM332.301 42.1361C330.211 38.2308 328.213 34.2719 326.39 30.2374C327.818 29.4422 329.144 28.4554 330.277 27.2758C331.721 25.8249 332.748 24.0169 333.426 22.1008C334.828 17.7822 334.676 12.8169 332.389 8.81924C331.346 7.01223 329.848 5.47401 328.091 4.33349C325.446 2.58279 322.313 1.71458 319.189 1.30011C318.087 1.21402 316.991 1.08512 315.889 1.09689C311.633 1.10214 307.381 1.09013 303.125 1.10314C303.129 17.4499 303.129 33.7961 303.125 50.1423C306.102 50.1488 309.068 50.1528 312.041 50.1423V33.6699C312.324 33.6659 312.611 33.6634 312.899 33.6502C313.63 33.5448 314.374 33.5941 315.108 33.4965C315.865 33.4339 316.609 33.2853 317.368 33.2462C317.686 34.0674 318.093 34.8495 318.458 35.6474C320.766 40.5667 323.257 45.3996 325.926 50.136C329.619 50.1596 333.308 50.149 337 50.14C335.328 47.5329 333.775 44.8529 332.301 42.1361ZM80.0384 1.09689H88.9347C88.9347 14.629 88.9321 28.162 88.9347 41.6929H104.173C104.173 44.511 104.175 47.3307 104.173 50.1463H80.0384C80.0371 33.7986 80.0384 17.4486 80.0384 1.09689Z" fill="white"/>
</svg>
