<svg width="800" height="800" viewBox="0 0 800 800" fill="none" xmlns="http://www.w3.org/2000/svg">
<path d="M573.887 644.41C531.163 596.693 469.09 566.667 400 566.667C330.911 566.667 268.831 596.693 226.107 644.41M400 700C234.315 700 100 565.687 100 400C100 234.315 234.315 100 400 100C565.687 100 700 234.315 700 400C700 565.687 565.687 700 400 700ZM400 466.667C344.77 466.667 300 421.897 300 366.667C300 311.438 344.77 266.667 400 266.667C455.23 266.667 500 311.438 500 366.667C500 421.897 455.23 466.667 400 466.667Z" stroke="#0367A6" stroke-width="30" stroke-linecap="round" stroke-linejoin="round"/>
</svg>
