<svg width="1363" height="297" viewBox="0 0 1363 297" fill="none" xmlns="http://www.w3.org/2000/svg">
<path d="M0 15C0 6.71573 6.71573 0 15 0H37V297H15C6.71573 297 0 290.284 0 282V15Z" fill="#0066A6"/>
<path d="M37 0H1066V297H37V0Z" fill="#F0F0F0"/>
<path d="M112.354 59.8301V63.9434H98.9941V59.8301H112.354ZM100.559 49.4062V75H95.2852V49.4062H100.559ZM116.115 49.4062V75H110.859V49.4062H116.115ZM130.652 70.7109V62.2383C130.652 61.6289 130.553 61.1074 130.354 60.6738C130.154 60.2285 129.844 59.8828 129.422 59.6367C129.012 59.3906 128.479 59.2676 127.822 59.2676C127.26 59.2676 126.773 59.3672 126.363 59.5664C125.953 59.7539 125.637 60.0293 125.414 60.3926C125.191 60.7441 125.08 61.1602 125.08 61.6406H120.018C120.018 60.832 120.205 60.0645 120.58 59.3379C120.955 58.6113 121.5 57.9727 122.215 57.4219C122.93 56.8594 123.779 56.4199 124.764 56.1035C125.76 55.7871 126.873 55.6289 128.104 55.6289C129.58 55.6289 130.893 55.875 132.041 56.3672C133.189 56.8594 134.092 57.5977 134.748 58.582C135.416 59.5664 135.75 60.7969 135.75 62.2734V70.4121C135.75 71.4551 135.814 72.3105 135.943 72.9785C136.072 73.6348 136.26 74.209 136.506 74.7012V75H131.391C131.145 74.4844 130.957 73.8398 130.828 73.0664C130.711 72.2812 130.652 71.4961 130.652 70.7109ZM131.32 63.416L131.355 66.2812H128.525C127.857 66.2812 127.277 66.3574 126.785 66.5098C126.293 66.6621 125.889 66.8789 125.572 67.1602C125.256 67.4297 125.021 67.7461 124.869 68.1094C124.729 68.4727 124.658 68.8711 124.658 69.3047C124.658 69.7383 124.758 70.1309 124.957 70.4824C125.156 70.8223 125.443 71.0918 125.818 71.291C126.193 71.4785 126.633 71.5723 127.137 71.5723C127.898 71.5723 128.561 71.4199 129.123 71.1152C129.686 70.8105 130.119 70.4355 130.424 69.9902C130.74 69.5449 130.904 69.123 130.916 68.7246L132.252 70.8691C132.064 71.3496 131.807 71.8477 131.479 72.3633C131.162 72.8789 130.758 73.3652 130.266 73.8223C129.773 74.2676 129.182 74.6367 128.49 74.9297C127.799 75.2109 126.979 75.3516 126.029 75.3516C124.822 75.3516 123.727 75.1113 122.742 74.6309C121.77 74.1387 120.996 73.4648 120.422 72.6094C119.859 71.7422 119.578 70.7578 119.578 69.6562C119.578 68.6602 119.766 67.7754 120.141 67.002C120.516 66.2285 121.066 65.5781 121.793 65.0508C122.531 64.5117 123.451 64.1074 124.553 63.8379C125.654 63.5566 126.932 63.416 128.385 63.416H131.32ZM149.936 69.7441C149.936 69.3809 149.83 69.0527 149.619 68.7598C149.408 68.4668 149.016 68.1973 148.441 67.9512C147.879 67.6934 147.064 67.459 145.998 67.248C145.037 67.0371 144.141 66.7734 143.309 66.457C142.488 66.1289 141.773 65.7363 141.164 65.2793C140.566 64.8223 140.098 64.2832 139.758 63.6621C139.418 63.0293 139.248 62.3086 139.248 61.5C139.248 60.7031 139.418 59.9531 139.758 59.25C140.109 58.5469 140.607 57.9258 141.252 57.3867C141.908 56.8359 142.705 56.4082 143.643 56.1035C144.592 55.7871 145.658 55.6289 146.842 55.6289C148.494 55.6289 149.912 55.8926 151.096 56.4199C152.291 56.9473 153.205 57.6738 153.838 58.5996C154.482 59.5137 154.805 60.5566 154.805 61.7285H149.742C149.742 61.2363 149.637 60.7969 149.426 60.4102C149.227 60.0117 148.91 59.7012 148.477 59.4785C148.055 59.2441 147.504 59.127 146.824 59.127C146.262 59.127 145.775 59.2266 145.365 59.4258C144.955 59.6133 144.639 59.8711 144.416 60.1992C144.205 60.5156 144.1 60.8672 144.1 61.2539C144.1 61.5469 144.158 61.8105 144.275 62.0449C144.404 62.2676 144.609 62.4727 144.891 62.6602C145.172 62.8477 145.535 63.0234 145.98 63.1875C146.438 63.3398 147 63.4805 147.668 63.6094C149.039 63.8906 150.264 64.2598 151.342 64.7168C152.42 65.1621 153.275 65.7715 153.908 66.5449C154.541 67.3066 154.857 68.3086 154.857 69.5508C154.857 70.3945 154.67 71.168 154.295 71.8711C153.92 72.5742 153.381 73.1895 152.678 73.7168C151.975 74.2324 151.131 74.6367 150.146 74.9297C149.174 75.2109 148.078 75.3516 146.859 75.3516C145.09 75.3516 143.59 75.0352 142.359 74.4023C141.141 73.7695 140.215 72.9668 139.582 71.9941C138.961 71.0098 138.65 70.002 138.65 68.9707H143.449C143.473 69.6621 143.648 70.2188 143.977 70.6406C144.316 71.0625 144.744 71.3672 145.26 71.5547C145.787 71.7422 146.355 71.8359 146.965 71.8359C147.621 71.8359 148.166 71.748 148.6 71.5723C149.033 71.3848 149.361 71.1387 149.584 70.834C149.818 70.5176 149.936 70.1543 149.936 69.7441ZM168.428 69.7441C168.428 69.3809 168.322 69.0527 168.111 68.7598C167.9 68.4668 167.508 68.1973 166.934 67.9512C166.371 67.6934 165.557 67.459 164.49 67.248C163.529 67.0371 162.633 66.7734 161.801 66.457C160.98 66.1289 160.266 65.7363 159.656 65.2793C159.059 64.8223 158.59 64.2832 158.25 63.6621C157.91 63.0293 157.74 62.3086 157.74 61.5C157.74 60.7031 157.91 59.9531 158.25 59.25C158.602 58.5469 159.1 57.9258 159.744 57.3867C160.4 56.8359 161.197 56.4082 162.135 56.1035C163.084 55.7871 164.15 55.6289 165.334 55.6289C166.986 55.6289 168.404 55.8926 169.588 56.4199C170.783 56.9473 171.697 57.6738 172.33 58.5996C172.975 59.5137 173.297 60.5566 173.297 61.7285H168.234C168.234 61.2363 168.129 60.7969 167.918 60.4102C167.719 60.0117 167.402 59.7012 166.969 59.4785C166.547 59.2441 165.996 59.127 165.316 59.127C164.754 59.127 164.268 59.2266 163.857 59.4258C163.447 59.6133 163.131 59.8711 162.908 60.1992C162.697 60.5156 162.592 60.8672 162.592 61.2539C162.592 61.5469 162.65 61.8105 162.768 62.0449C162.896 62.2676 163.102 62.4727 163.383 62.6602C163.664 62.8477 164.027 63.0234 164.473 63.1875C164.93 63.3398 165.492 63.4805 166.16 63.6094C167.531 63.8906 168.756 64.2598 169.834 64.7168C170.912 65.1621 171.768 65.7715 172.4 66.5449C173.033 67.3066 173.35 68.3086 173.35 69.5508C173.35 70.3945 173.162 71.168 172.787 71.8711C172.412 72.5742 171.873 73.1895 171.17 73.7168C170.467 74.2324 169.623 74.6367 168.639 74.9297C167.666 75.2109 166.57 75.3516 165.352 75.3516C163.582 75.3516 162.082 75.0352 160.852 74.4023C159.633 73.7695 158.707 72.9668 158.074 71.9941C157.453 71.0098 157.143 70.002 157.143 68.9707H161.941C161.965 69.6621 162.141 70.2188 162.469 70.6406C162.809 71.0625 163.236 71.3672 163.752 71.5547C164.279 71.7422 164.848 71.8359 165.457 71.8359C166.113 71.8359 166.658 71.748 167.092 71.5723C167.525 71.3848 167.854 71.1387 168.076 70.834C168.311 70.5176 168.428 70.1543 168.428 69.7441ZM186.902 70.7109V62.2383C186.902 61.6289 186.803 61.1074 186.604 60.6738C186.404 60.2285 186.094 59.8828 185.672 59.6367C185.262 59.3906 184.729 59.2676 184.072 59.2676C183.51 59.2676 183.023 59.3672 182.613 59.5664C182.203 59.7539 181.887 60.0293 181.664 60.3926C181.441 60.7441 181.33 61.1602 181.33 61.6406H176.268C176.268 60.832 176.455 60.0645 176.83 59.3379C177.205 58.6113 177.75 57.9727 178.465 57.4219C179.18 56.8594 180.029 56.4199 181.014 56.1035C182.01 55.7871 183.123 55.6289 184.354 55.6289C185.83 55.6289 187.143 55.875 188.291 56.3672C189.439 56.8594 190.342 57.5977 190.998 58.582C191.666 59.5664 192 60.7969 192 62.2734V70.4121C192 71.4551 192.064 72.3105 192.193 72.9785C192.322 73.6348 192.51 74.209 192.756 74.7012V75H187.641C187.395 74.4844 187.207 73.8398 187.078 73.0664C186.961 72.2812 186.902 71.4961 186.902 70.7109ZM187.57 63.416L187.605 66.2812H184.775C184.107 66.2812 183.527 66.3574 183.035 66.5098C182.543 66.6621 182.139 66.8789 181.822 67.1602C181.506 67.4297 181.271 67.7461 181.119 68.1094C180.979 68.4727 180.908 68.8711 180.908 69.3047C180.908 69.7383 181.008 70.1309 181.207 70.4824C181.406 70.8223 181.693 71.0918 182.068 71.291C182.443 71.4785 182.883 71.5723 183.387 71.5723C184.148 71.5723 184.811 71.4199 185.373 71.1152C185.936 70.8105 186.369 70.4355 186.674 69.9902C186.99 69.5449 187.154 69.123 187.166 68.7246L188.502 70.8691C188.314 71.3496 188.057 71.8477 187.729 72.3633C187.412 72.8789 187.008 73.3652 186.516 73.8223C186.023 74.2676 185.432 74.6367 184.74 74.9297C184.049 75.2109 183.229 75.3516 182.279 75.3516C181.072 75.3516 179.977 75.1113 178.992 74.6309C178.02 74.1387 177.246 73.4648 176.672 72.6094C176.109 71.7422 175.828 70.7578 175.828 69.6562C175.828 68.6602 176.016 67.7754 176.391 67.002C176.766 66.2285 177.316 65.5781 178.043 65.0508C178.781 64.5117 179.701 64.1074 180.803 63.8379C181.904 63.5566 183.182 63.416 184.635 63.416H187.57ZM200.859 60.041V75H195.797V55.9805H200.543L200.859 60.041ZM200.121 64.8223H198.75C198.75 63.416 198.932 62.1504 199.295 61.0254C199.658 59.8887 200.168 58.9219 200.824 58.125C201.48 57.3164 202.26 56.7012 203.162 56.2793C204.076 55.8457 205.096 55.6289 206.221 55.6289C207.111 55.6289 207.926 55.7578 208.664 56.0156C209.402 56.2734 210.035 56.6836 210.562 57.2461C211.102 57.8086 211.512 58.5527 211.793 59.4785C212.086 60.4043 212.232 61.5352 212.232 62.8711V75H207.135V62.8535C207.135 62.0098 207.018 61.3535 206.783 60.8848C206.549 60.416 206.203 60.0879 205.746 59.9004C205.301 59.7012 204.75 59.6016 204.094 59.6016C203.414 59.6016 202.822 59.7363 202.318 60.0059C201.826 60.2754 201.416 60.6504 201.088 61.1309C200.771 61.5996 200.531 62.1504 200.367 62.7832C200.203 63.416 200.121 64.0957 200.121 64.8223ZM243.873 70.8867V75H225.732V70.8867H243.873ZM243.609 52.3418L228.07 75H224.361V71.9766L240.023 49.4062H243.609V52.3418ZM241.799 49.4062V53.5371H224.379V49.4062H241.799ZM255.281 75.3516C253.805 75.3516 252.48 75.1172 251.309 74.6484C250.137 74.168 249.141 73.5059 248.32 72.6621C247.512 71.8184 246.891 70.8398 246.457 69.7266C246.023 68.6016 245.807 67.4062 245.807 66.1406V65.4375C245.807 63.9961 246.012 62.6777 246.422 61.4824C246.832 60.2871 247.418 59.25 248.18 58.3711C248.953 57.4922 249.891 56.8184 250.992 56.3496C252.094 55.8691 253.336 55.6289 254.719 55.6289C256.066 55.6289 257.262 55.8516 258.305 56.2969C259.348 56.7422 260.221 57.375 260.924 58.1953C261.639 59.0156 262.178 60 262.541 61.1484C262.904 62.2852 263.086 63.5508 263.086 64.9453V67.0547H247.969V63.6797H258.111V63.293C258.111 62.5898 257.982 61.9629 257.725 61.4121C257.479 60.8496 257.104 60.4043 256.6 60.0762C256.096 59.748 255.451 59.584 254.666 59.584C253.998 59.584 253.424 59.7305 252.943 60.0234C252.463 60.3164 252.07 60.7266 251.766 61.2539C251.473 61.7812 251.25 62.4023 251.098 63.1172C250.957 63.8203 250.887 64.5938 250.887 65.4375V66.1406C250.887 66.9023 250.992 67.6055 251.203 68.25C251.426 68.8945 251.736 69.4512 252.135 69.9199C252.545 70.3887 253.037 70.752 253.611 71.0098C254.197 71.2676 254.859 71.3965 255.598 71.3965C256.512 71.3965 257.361 71.2207 258.146 70.8691C258.943 70.5059 259.629 69.9609 260.203 69.2344L262.664 71.9062C262.266 72.4805 261.721 73.0312 261.029 73.5586C260.35 74.0859 259.529 74.5195 258.568 74.8594C257.607 75.1875 256.512 75.3516 255.281 75.3516ZM271.312 55.9805V75H266.232V55.9805H271.312ZM265.916 51.0234C265.916 50.2852 266.174 49.6758 266.689 49.1953C267.205 48.7148 267.896 48.4746 268.764 48.4746C269.619 48.4746 270.305 48.7148 270.82 49.1953C271.348 49.6758 271.611 50.2852 271.611 51.0234C271.611 51.7617 271.348 52.3711 270.82 52.8516C270.305 53.332 269.619 53.5723 268.764 53.5723C267.896 53.5723 267.205 53.332 266.689 52.8516C266.174 52.3711 265.916 51.7617 265.916 51.0234ZM280.453 60.041V75H275.391V55.9805H280.137L280.453 60.041ZM279.715 64.8223H278.344C278.344 63.416 278.525 62.1504 278.889 61.0254C279.252 59.8887 279.762 58.9219 280.418 58.125C281.074 57.3164 281.854 56.7012 282.756 56.2793C283.67 55.8457 284.689 55.6289 285.814 55.6289C286.705 55.6289 287.52 55.7578 288.258 56.0156C288.996 56.2734 289.629 56.6836 290.156 57.2461C290.695 57.8086 291.105 58.5527 291.387 59.4785C291.68 60.4043 291.826 61.5352 291.826 62.8711V75H286.729V62.8535C286.729 62.0098 286.611 61.3535 286.377 60.8848C286.143 60.416 285.797 60.0879 285.34 59.9004C284.895 59.7012 284.344 59.6016 283.688 59.6016C283.008 59.6016 282.416 59.7363 281.912 60.0059C281.42 60.2754 281.01 60.6504 280.682 61.1309C280.365 61.5996 280.125 62.1504 279.961 62.7832C279.797 63.416 279.715 64.0957 279.715 64.8223ZM315.363 53.7832L308.402 75H302.795L312.305 49.4062H315.873L315.363 53.7832ZM321.146 75L314.168 53.7832L313.605 49.4062H317.209L326.771 75H321.146ZM320.83 65.4727V69.6035H307.312V65.4727H320.83ZM334.172 48V75H329.092V48H334.172ZM346.529 75H340.957L340.992 70.8867H346.529C347.912 70.8867 349.078 70.5762 350.027 69.9551C350.977 69.3223 351.691 68.4023 352.172 67.1953C352.664 65.9883 352.91 64.5293 352.91 62.8184V61.5703C352.91 60.2578 352.77 59.1035 352.488 58.1074C352.219 57.1113 351.814 56.2734 351.275 55.5938C350.736 54.9141 350.074 54.4043 349.289 54.0645C348.504 53.7129 347.602 53.5371 346.582 53.5371H340.852V49.4062H346.582C348.293 49.4062 349.857 49.6992 351.275 50.2852C352.705 50.8594 353.941 51.6855 354.984 52.7637C356.027 53.8418 356.83 55.1309 357.393 56.6309C357.967 58.1191 358.254 59.7773 358.254 61.6055V62.8184C358.254 64.6348 357.967 66.293 357.393 67.793C356.83 69.293 356.027 70.582 354.984 71.6602C353.953 72.7266 352.717 73.5527 351.275 74.1387C349.846 74.7129 348.264 75 346.529 75ZM343.945 49.4062V75H338.672V49.4062H343.945ZM370.523 75.3516C369.047 75.3516 367.723 75.1172 366.551 74.6484C365.379 74.168 364.383 73.5059 363.562 72.6621C362.754 71.8184 362.133 70.8398 361.699 69.7266C361.266 68.6016 361.049 67.4062 361.049 66.1406V65.4375C361.049 63.9961 361.254 62.6777 361.664 61.4824C362.074 60.2871 362.66 59.25 363.422 58.3711C364.195 57.4922 365.133 56.8184 366.234 56.3496C367.336 55.8691 368.578 55.6289 369.961 55.6289C371.309 55.6289 372.504 55.8516 373.547 56.2969C374.59 56.7422 375.463 57.375 376.166 58.1953C376.881 59.0156 377.42 60 377.783 61.1484C378.146 62.2852 378.328 63.5508 378.328 64.9453V67.0547H363.211V63.6797H373.354V63.293C373.354 62.5898 373.225 61.9629 372.967 61.4121C372.721 60.8496 372.346 60.4043 371.842 60.0762C371.338 59.748 370.693 59.584 369.908 59.584C369.24 59.584 368.666 59.7305 368.186 60.0234C367.705 60.3164 367.312 60.7266 367.008 61.2539C366.715 61.7812 366.492 62.4023 366.34 63.1172C366.199 63.8203 366.129 64.5938 366.129 65.4375V66.1406C366.129 66.9023 366.234 67.6055 366.445 68.25C366.668 68.8945 366.979 69.4512 367.377 69.9199C367.787 70.3887 368.279 70.752 368.854 71.0098C369.439 71.2676 370.102 71.3965 370.84 71.3965C371.754 71.3965 372.604 71.2207 373.389 70.8691C374.186 70.5059 374.871 69.9609 375.445 69.2344L377.906 71.9062C377.508 72.4805 376.963 73.0312 376.271 73.5586C375.592 74.0859 374.771 74.5195 373.811 74.8594C372.85 75.1875 371.754 75.3516 370.523 75.3516ZM389.965 75.3516C388.488 75.3516 387.164 75.1172 385.992 74.6484C384.82 74.168 383.824 73.5059 383.004 72.6621C382.195 71.8184 381.574 70.8398 381.141 69.7266C380.707 68.6016 380.49 67.4062 380.49 66.1406V65.4375C380.49 63.9961 380.695 62.6777 381.105 61.4824C381.516 60.2871 382.102 59.25 382.863 58.3711C383.637 57.4922 384.574 56.8184 385.676 56.3496C386.777 55.8691 388.02 55.6289 389.402 55.6289C390.75 55.6289 391.945 55.8516 392.988 56.2969C394.031 56.7422 394.904 57.375 395.607 58.1953C396.322 59.0156 396.861 60 397.225 61.1484C397.588 62.2852 397.77 63.5508 397.77 64.9453V67.0547H382.652V63.6797H392.795V63.293C392.795 62.5898 392.666 61.9629 392.408 61.4121C392.162 60.8496 391.787 60.4043 391.283 60.0762C390.779 59.748 390.135 59.584 389.35 59.584C388.682 59.584 388.107 59.7305 387.627 60.0234C387.146 60.3164 386.754 60.7266 386.449 61.2539C386.156 61.7812 385.934 62.4023 385.781 63.1172C385.641 63.8203 385.57 64.5938 385.57 65.4375V66.1406C385.57 66.9023 385.676 67.6055 385.887 68.25C386.109 68.8945 386.42 69.4512 386.818 69.9199C387.229 70.3887 387.721 70.752 388.295 71.0098C388.881 71.2676 389.543 71.3965 390.281 71.3965C391.195 71.3965 392.045 71.2207 392.83 70.8691C393.627 70.5059 394.312 69.9609 394.887 69.2344L397.348 71.9062C396.949 72.4805 396.404 73.0312 395.713 73.5586C395.033 74.0859 394.213 74.5195 393.252 74.8594C392.291 75.1875 391.195 75.3516 389.965 75.3516ZM405.609 60.041V75H400.547V55.9805H405.293L405.609 60.041ZM404.871 64.8223H403.5C403.5 63.416 403.682 62.1504 404.045 61.0254C404.408 59.8887 404.918 58.9219 405.574 58.125C406.23 57.3164 407.01 56.7012 407.912 56.2793C408.826 55.8457 409.846 55.6289 410.971 55.6289C411.861 55.6289 412.676 55.7578 413.414 56.0156C414.152 56.2734 414.785 56.6836 415.312 57.2461C415.852 57.8086 416.262 58.5527 416.543 59.4785C416.836 60.4043 416.982 61.5352 416.982 62.8711V75H411.885V62.8535C411.885 62.0098 411.768 61.3535 411.533 60.8848C411.299 60.416 410.953 60.0879 410.496 59.9004C410.051 59.7012 409.5 59.6016 408.844 59.6016C408.164 59.6016 407.572 59.7363 407.068 60.0059C406.576 60.2754 406.166 60.6504 405.838 61.1309C405.521 61.5996 405.281 62.1504 405.117 62.7832C404.953 63.416 404.871 64.0957 404.871 64.8223Z" fill="#888888"/>
<path d="M112.906 108.555L103.199 140H92.8906L107.52 100.188H114.055L112.906 108.555ZM120.945 140L111.211 108.555L109.953 100.188H116.57L131.281 140H120.945ZM120.562 125.152V132.562H100.137V125.152H120.562ZM151.762 119.273V126.41H135.328V119.273H151.762ZM186.816 132.617V140H165.598V132.617H186.816ZM169.016 100.188V140H159.418V100.188H169.016ZM184.082 115.992V123.129H165.598V115.992H184.082ZM186.898 100.188V107.598H165.598V100.188H186.898ZM198.684 136.527L206.34 110.414H216.238L204.344 144.402C204.089 145.15 203.751 145.952 203.332 146.809C202.913 147.684 202.339 148.513 201.609 149.297C200.88 150.081 199.941 150.719 198.793 151.211C197.663 151.703 196.259 151.949 194.582 151.949C193.689 151.949 193.033 151.904 192.613 151.812C192.212 151.74 191.592 151.603 190.754 151.402V144.812C190.991 144.812 191.191 144.812 191.355 144.812C191.538 144.812 191.738 144.812 191.957 144.812C192.941 144.812 193.725 144.712 194.309 144.512C194.91 144.311 195.366 144.02 195.676 143.637C196.004 143.254 196.259 142.789 196.441 142.242L198.684 136.527ZM196.742 110.414L202.566 131.113L203.578 140.875H197.398L186.871 110.414H196.742ZM232.59 140.547C230.184 140.547 228.033 140.173 226.137 139.426C224.241 138.66 222.637 137.612 221.324 136.281C220.03 134.951 219.036 133.419 218.344 131.688C217.669 129.956 217.332 128.124 217.332 126.191V125.152C217.332 122.983 217.633 120.978 218.234 119.137C218.836 117.277 219.729 115.655 220.914 114.27C222.099 112.884 223.585 111.809 225.371 111.043C227.158 110.259 229.236 109.867 231.605 109.867C233.702 109.867 235.579 110.204 237.238 110.879C238.897 111.553 240.301 112.52 241.449 113.777C242.616 115.035 243.5 116.557 244.102 118.344C244.721 120.13 245.031 122.135 245.031 124.359V128.105H220.859V122.336H236.035V121.625C236.053 120.641 235.88 119.802 235.516 119.109C235.169 118.417 234.659 117.888 233.984 117.523C233.31 117.159 232.49 116.977 231.523 116.977C230.521 116.977 229.691 117.195 229.035 117.633C228.397 118.07 227.896 118.672 227.531 119.438C227.185 120.185 226.939 121.051 226.793 122.035C226.647 123.02 226.574 124.059 226.574 125.152V126.191C226.574 127.285 226.72 128.279 227.012 129.172C227.322 130.065 227.759 130.831 228.324 131.469C228.908 132.089 229.6 132.572 230.402 132.918C231.223 133.264 232.152 133.438 233.191 133.438C234.449 133.438 235.689 133.201 236.91 132.727C238.132 132.253 239.18 131.469 240.055 130.375L244.238 135.352C243.637 136.208 242.78 137.038 241.668 137.84C240.574 138.642 239.262 139.298 237.73 139.809C236.199 140.301 234.486 140.547 232.59 140.547Z" fill="black"/>
<rect x="93" y="178" width="749" height="77" rx="10" fill="#0066A6"/>
<rect x="111" y="196" width="91" height="41" rx="3" fill="#E84524"/>
<path d="M134.141 210.203H139.177C140.161 210.203 141.017 210.35 141.743 210.643C142.47 210.936 143.029 211.369 143.422 211.943C143.82 212.518 144.02 213.227 144.02 214.07C144.02 214.803 143.905 215.415 143.677 215.907C143.448 216.399 143.129 216.807 142.719 217.129C142.314 217.445 141.843 217.706 141.304 217.911L140.293 218.482H136.065L136.048 216.101H139.177C139.569 216.101 139.895 216.03 140.152 215.89C140.41 215.749 140.604 215.55 140.732 215.292C140.867 215.028 140.935 214.715 140.935 214.352C140.935 213.982 140.867 213.666 140.732 213.402C140.598 213.139 140.398 212.937 140.135 212.796C139.877 212.655 139.558 212.585 139.177 212.585H137.226V223H134.141V210.203ZM141.146 223L138.315 217.34L141.585 217.322L144.45 222.868V223H141.146ZM150.348 223.176C149.574 223.176 148.883 223.056 148.273 222.815C147.664 222.569 147.148 222.232 146.727 221.805C146.311 221.377 145.991 220.885 145.769 220.328C145.552 219.771 145.443 219.183 145.443 218.562V218.228C145.443 217.53 145.54 216.886 145.733 216.294C145.927 215.696 146.214 215.175 146.595 214.729C146.976 214.284 147.453 213.938 148.027 213.692C148.602 213.44 149.27 213.314 150.031 213.314C150.705 213.314 151.309 213.423 151.842 213.64C152.375 213.856 152.826 214.167 153.195 214.571C153.57 214.976 153.854 215.465 154.048 216.039C154.247 216.613 154.347 217.258 154.347 217.973V219.177H146.577V217.322H151.455V217.094C151.461 216.777 151.405 216.508 151.288 216.285C151.177 216.062 151.013 215.893 150.796 215.775C150.579 215.658 150.315 215.6 150.005 215.6C149.683 215.6 149.416 215.67 149.205 215.811C149 215.951 148.839 216.145 148.722 216.391C148.61 216.631 148.531 216.909 148.484 217.226C148.438 217.542 148.414 217.876 148.414 218.228V218.562C148.414 218.913 148.461 219.232 148.555 219.52C148.654 219.807 148.795 220.053 148.977 220.258C149.164 220.457 149.387 220.612 149.645 220.724C149.908 220.835 150.207 220.891 150.541 220.891C150.945 220.891 151.344 220.814 151.736 220.662C152.129 220.51 152.466 220.258 152.747 219.906L154.092 221.506C153.898 221.781 153.623 222.048 153.266 222.306C152.914 222.563 152.492 222.774 152 222.938C151.508 223.097 150.957 223.176 150.348 223.176ZM160.49 220.609V216.689C160.49 216.42 160.452 216.188 160.376 215.995C160.3 215.802 160.18 215.652 160.016 215.547C159.852 215.436 159.632 215.38 159.356 215.38C159.134 215.38 158.943 215.418 158.785 215.494C158.627 215.57 158.507 215.685 158.425 215.837C158.343 215.989 158.302 216.183 158.302 216.417H155.34C155.34 215.978 155.437 215.57 155.63 215.195C155.829 214.814 156.11 214.483 156.474 214.202C156.843 213.921 157.282 213.704 157.792 213.552C158.308 213.394 158.882 213.314 159.515 213.314C160.271 213.314 160.944 213.44 161.536 213.692C162.134 213.944 162.605 214.322 162.951 214.826C163.297 215.324 163.47 215.951 163.47 216.707V220.601C163.47 221.222 163.505 221.693 163.575 222.016C163.646 222.332 163.745 222.61 163.874 222.851V223H160.903C160.763 222.707 160.657 222.35 160.587 221.928C160.522 221.5 160.49 221.061 160.49 220.609ZM160.851 217.19L160.868 218.772H159.559C159.283 218.772 159.049 218.811 158.855 218.887C158.668 218.963 158.516 219.068 158.398 219.203C158.287 219.332 158.205 219.479 158.152 219.643C158.105 219.807 158.082 219.979 158.082 220.161C158.082 220.337 158.123 220.495 158.205 220.636C158.293 220.771 158.41 220.876 158.557 220.952C158.703 221.028 158.867 221.066 159.049 221.066C159.377 221.066 159.655 221.005 159.884 220.882C160.118 220.753 160.297 220.598 160.42 220.416C160.543 220.234 160.604 220.064 160.604 219.906L161.255 221.119C161.138 221.354 161.003 221.591 160.851 221.831C160.704 222.071 160.52 222.294 160.297 222.499C160.08 222.698 159.813 222.862 159.497 222.991C159.181 223.114 158.797 223.176 158.346 223.176C157.76 223.176 157.221 223.056 156.729 222.815C156.242 222.575 155.853 222.241 155.56 221.813C155.267 221.38 155.12 220.882 155.12 220.319C155.12 219.827 155.208 219.388 155.384 219.001C155.565 218.614 155.838 218.286 156.201 218.017C156.564 217.747 157.027 217.542 157.59 217.401C158.152 217.261 158.814 217.19 159.576 217.19H160.851ZM169.13 220.891C169.405 220.891 169.64 220.841 169.833 220.741C170.032 220.636 170.182 220.489 170.281 220.302C170.387 220.108 170.437 219.877 170.431 219.607H173.217C173.223 220.322 173.047 220.949 172.689 221.488C172.338 222.021 171.857 222.438 171.248 222.736C170.645 223.029 169.962 223.176 169.2 223.176C168.456 223.176 167.806 223.056 167.249 222.815C166.692 222.569 166.227 222.229 165.852 221.796C165.482 221.356 165.204 220.844 165.017 220.258C164.835 219.672 164.744 219.036 164.744 218.351V218.148C164.744 217.463 164.835 216.827 165.017 216.241C165.204 215.649 165.482 215.137 165.852 214.703C166.227 214.264 166.689 213.924 167.24 213.684C167.797 213.438 168.444 213.314 169.183 213.314C169.974 213.314 170.671 213.464 171.274 213.763C171.884 214.062 172.361 214.495 172.707 215.063C173.053 215.632 173.223 216.32 173.217 217.129H170.431C170.437 216.842 170.393 216.584 170.299 216.355C170.205 216.127 170.059 215.945 169.859 215.811C169.666 215.67 169.417 215.6 169.112 215.6C168.808 215.6 168.562 215.667 168.374 215.802C168.187 215.937 168.043 216.124 167.943 216.364C167.85 216.599 167.785 216.868 167.75 217.173C167.721 217.478 167.706 217.803 167.706 218.148V218.351C167.706 218.702 167.721 219.033 167.75 219.344C167.785 219.648 167.853 219.918 167.952 220.152C168.052 220.381 168.195 220.562 168.383 220.697C168.57 220.826 168.819 220.891 169.13 220.891ZM179.492 213.49V215.547H173.762V213.49H179.492ZM174.966 211.126H177.928V219.897C177.928 220.149 177.957 220.346 178.016 220.486C178.074 220.621 178.174 220.718 178.314 220.776C178.461 220.829 178.654 220.855 178.895 220.855C179.064 220.855 179.205 220.853 179.316 220.847C179.428 220.835 179.533 220.82 179.633 220.803V222.921C179.381 223.003 179.117 223.064 178.842 223.105C178.566 223.152 178.273 223.176 177.963 223.176C177.33 223.176 176.788 223.076 176.337 222.877C175.892 222.678 175.552 222.364 175.317 221.937C175.083 221.509 174.966 220.952 174.966 220.267V211.126Z" fill="white"/>
<rect x="111" y="196" width="91" height="41" rx="3" stroke="#E84524" stroke-width="4"/>
<rect x="222" y="196" width="130" height="41" rx="3" fill="#E84524"/>
<path d="M253.883 220.627V223H247.062V220.627H253.883ZM248.161 210.203V223H245.076V210.203H248.161ZM253.004 215.283V217.577H247.062V215.283H253.004ZM253.909 210.203V212.585H247.062V210.203H253.909ZM257.521 213.49L258.857 216.109L260.237 213.49H263.313L260.817 218.122L263.445 223H260.343L258.857 220.188L257.381 223H254.278L256.906 218.122L254.419 213.49H257.521ZM267.277 215.318V226.656H264.315V213.49H267.075L267.277 215.318ZM273.113 218.131V218.315C273.113 219.007 273.034 219.648 272.876 220.24C272.718 220.832 272.483 221.348 272.173 221.787C271.862 222.227 271.476 222.569 271.013 222.815C270.556 223.056 270.025 223.176 269.422 223.176C268.854 223.176 268.364 223.05 267.954 222.798C267.544 222.546 267.201 222.197 266.926 221.752C266.65 221.307 266.428 220.797 266.258 220.223C266.088 219.648 265.953 219.042 265.854 218.403V218.166C265.953 217.48 266.088 216.845 266.258 216.259C266.428 215.667 266.65 215.151 266.926 214.712C267.201 214.272 267.541 213.93 267.945 213.684C268.355 213.438 268.845 213.314 269.413 213.314C270.017 213.314 270.547 213.429 271.004 213.657C271.467 213.886 271.854 214.214 272.164 214.642C272.48 215.063 272.718 215.57 272.876 216.162C273.034 216.754 273.113 217.41 273.113 218.131ZM270.151 218.315V218.131C270.151 217.762 270.125 217.425 270.072 217.12C270.02 216.81 269.935 216.54 269.817 216.312C269.706 216.083 269.557 215.907 269.369 215.784C269.182 215.661 268.95 215.6 268.675 215.6C268.358 215.6 268.092 215.649 267.875 215.749C267.664 215.843 267.494 215.989 267.365 216.188C267.242 216.382 267.154 216.625 267.102 216.918C267.055 217.205 267.034 217.542 267.04 217.929V218.649C267.028 219.095 267.072 219.487 267.172 219.827C267.271 220.161 267.444 220.422 267.69 220.609C267.937 220.797 268.271 220.891 268.692 220.891C268.974 220.891 269.208 220.826 269.396 220.697C269.583 220.562 269.732 220.378 269.844 220.144C269.955 219.903 270.034 219.628 270.081 219.317C270.128 219.007 270.151 218.673 270.151 218.315ZM277.42 215.846V223H274.458V213.49H277.227L277.42 215.846ZM280.232 213.42L280.18 216.171C280.062 216.159 279.904 216.145 279.705 216.127C279.506 216.109 279.339 216.101 279.204 216.101C278.858 216.101 278.56 216.142 278.308 216.224C278.062 216.3 277.856 216.417 277.692 216.575C277.534 216.728 277.417 216.921 277.341 217.155C277.271 217.39 277.238 217.662 277.244 217.973L276.708 217.621C276.708 216.982 276.77 216.402 276.893 215.881C277.021 215.354 277.203 214.899 277.438 214.519C277.672 214.132 277.956 213.836 278.29 213.631C278.624 213.42 278.999 213.314 279.415 213.314C279.562 213.314 279.705 213.323 279.846 213.341C279.992 213.358 280.121 213.385 280.232 213.42ZM285.682 223.176C284.908 223.176 284.217 223.056 283.607 222.815C282.998 222.569 282.482 222.232 282.061 221.805C281.645 221.377 281.325 220.885 281.103 220.328C280.886 219.771 280.777 219.183 280.777 218.562V218.228C280.777 217.53 280.874 216.886 281.067 216.294C281.261 215.696 281.548 215.175 281.929 214.729C282.31 214.284 282.787 213.938 283.361 213.692C283.936 213.44 284.604 213.314 285.365 213.314C286.039 213.314 286.643 213.423 287.176 213.64C287.709 213.856 288.16 214.167 288.529 214.571C288.904 214.976 289.188 215.465 289.382 216.039C289.581 216.613 289.681 217.258 289.681 217.973V219.177H281.911V217.322H286.789V217.094C286.795 216.777 286.739 216.508 286.622 216.285C286.511 216.062 286.347 215.893 286.13 215.775C285.913 215.658 285.649 215.6 285.339 215.6C285.017 215.6 284.75 215.67 284.539 215.811C284.334 215.951 284.173 216.145 284.056 216.391C283.944 216.631 283.865 216.909 283.818 217.226C283.771 217.542 283.748 217.876 283.748 218.228V218.562C283.748 218.913 283.795 219.232 283.889 219.52C283.988 219.807 284.129 220.053 284.311 220.258C284.498 220.457 284.721 220.612 284.979 220.724C285.242 220.835 285.541 220.891 285.875 220.891C286.279 220.891 286.678 220.814 287.07 220.662C287.463 220.51 287.8 220.258 288.081 219.906L289.426 221.506C289.232 221.781 288.957 222.048 288.6 222.306C288.248 222.563 287.826 222.774 287.334 222.938C286.842 223.097 286.291 223.176 285.682 223.176ZM295.868 220.328C295.868 220.164 295.812 220.023 295.701 219.906C295.596 219.783 295.408 219.672 295.139 219.572C294.869 219.467 294.491 219.361 294.005 219.256C293.542 219.156 293.105 219.024 292.695 218.86C292.291 218.696 291.937 218.497 291.632 218.263C291.327 218.028 291.087 217.75 290.911 217.428C290.741 217.105 290.656 216.736 290.656 216.32C290.656 215.916 290.741 215.535 290.911 215.178C291.087 214.814 291.342 214.495 291.676 214.22C292.016 213.938 292.429 213.719 292.915 213.561C293.401 213.396 293.955 213.314 294.576 213.314C295.432 213.314 296.17 213.446 296.791 213.71C297.412 213.968 297.89 214.331 298.224 214.8C298.563 215.263 298.733 215.799 298.733 216.408H295.771C295.771 216.168 295.73 215.963 295.648 215.793C295.572 215.623 295.446 215.494 295.271 215.406C295.095 215.312 294.86 215.266 294.567 215.266C294.362 215.266 294.175 215.304 294.005 215.38C293.841 215.456 293.709 215.562 293.609 215.696C293.51 215.831 293.46 215.989 293.46 216.171C293.46 216.3 293.489 216.417 293.548 216.522C293.612 216.622 293.709 216.716 293.838 216.804C293.967 216.886 294.131 216.962 294.33 217.032C294.529 217.097 294.77 217.155 295.051 217.208C295.689 217.325 296.287 217.492 296.844 217.709C297.4 217.926 297.852 218.233 298.197 218.632C298.549 219.03 298.725 219.566 298.725 220.24C298.725 220.662 298.628 221.052 298.435 221.409C298.241 221.761 297.963 222.071 297.6 222.341C297.236 222.604 296.8 222.81 296.29 222.956C295.78 223.103 295.206 223.176 294.567 223.176C293.659 223.176 292.892 223.015 292.265 222.692C291.638 222.364 291.163 221.954 290.841 221.462C290.524 220.964 290.366 220.46 290.366 219.95H293.126C293.138 220.243 293.208 220.483 293.337 220.671C293.472 220.858 293.65 220.996 293.873 221.084C294.096 221.172 294.354 221.216 294.646 221.216C294.916 221.216 295.139 221.178 295.314 221.102C295.496 221.025 295.634 220.923 295.728 220.794C295.821 220.659 295.868 220.504 295.868 220.328ZM305.097 220.328C305.097 220.164 305.041 220.023 304.93 219.906C304.824 219.783 304.637 219.672 304.367 219.572C304.098 219.467 303.72 219.361 303.233 219.256C302.771 219.156 302.334 219.024 301.924 218.86C301.52 218.696 301.165 218.497 300.86 218.263C300.556 218.028 300.315 217.75 300.14 217.428C299.97 217.105 299.885 216.736 299.885 216.32C299.885 215.916 299.97 215.535 300.14 215.178C300.315 214.814 300.57 214.495 300.904 214.22C301.244 213.938 301.657 213.719 302.144 213.561C302.63 213.396 303.184 213.314 303.805 213.314C304.66 213.314 305.398 213.446 306.02 213.71C306.641 213.968 307.118 214.331 307.452 214.8C307.792 215.263 307.962 215.799 307.962 216.408H305C305 216.168 304.959 215.963 304.877 215.793C304.801 215.623 304.675 215.494 304.499 215.406C304.323 215.312 304.089 215.266 303.796 215.266C303.591 215.266 303.403 215.304 303.233 215.38C303.069 215.456 302.938 215.562 302.838 215.696C302.738 215.831 302.688 215.989 302.688 216.171C302.688 216.3 302.718 216.417 302.776 216.522C302.841 216.622 302.938 216.716 303.066 216.804C303.195 216.886 303.359 216.962 303.559 217.032C303.758 217.097 303.998 217.155 304.279 217.208C304.918 217.325 305.516 217.492 306.072 217.709C306.629 217.926 307.08 218.233 307.426 218.632C307.777 219.03 307.953 219.566 307.953 220.24C307.953 220.662 307.856 221.052 307.663 221.409C307.47 221.761 307.191 222.071 306.828 222.341C306.465 222.604 306.028 222.81 305.519 222.956C305.009 223.103 304.435 223.176 303.796 223.176C302.888 223.176 302.12 223.015 301.493 222.692C300.866 222.364 300.392 221.954 300.069 221.462C299.753 220.964 299.595 220.46 299.595 219.95H302.354C302.366 220.243 302.437 220.483 302.565 220.671C302.7 220.858 302.879 220.996 303.102 221.084C303.324 221.172 303.582 221.216 303.875 221.216C304.145 221.216 304.367 221.178 304.543 221.102C304.725 221.025 304.862 220.923 304.956 220.794C305.05 220.659 305.097 220.504 305.097 220.328ZM314.571 218.983V210.203H317.647V218.983C317.647 219.839 317.451 220.58 317.059 221.207C316.672 221.834 316.145 222.32 315.477 222.666C314.814 223.006 314.07 223.176 313.244 223.176C312.389 223.176 311.627 223.032 310.959 222.745C310.297 222.458 309.775 222.016 309.395 221.418C309.02 220.82 308.832 220.059 308.832 219.133H311.926C311.926 219.566 311.976 219.906 312.075 220.152C312.175 220.393 312.321 220.562 312.515 220.662C312.714 220.756 312.957 220.803 313.244 220.803C313.525 220.803 313.763 220.732 313.956 220.592C314.155 220.445 314.308 220.237 314.413 219.968C314.519 219.692 314.571 219.364 314.571 218.983ZM326.199 219.599C326.199 219.399 326.17 219.221 326.111 219.062C326.053 218.898 325.944 218.746 325.786 218.605C325.628 218.465 325.399 218.324 325.101 218.184C324.808 218.037 324.421 217.885 323.94 217.727C323.378 217.539 322.836 217.328 322.314 217.094C321.793 216.854 321.327 216.575 320.917 216.259C320.507 215.937 320.182 215.562 319.941 215.134C319.701 214.7 319.581 214.196 319.581 213.622C319.581 213.071 319.704 212.576 319.95 212.137C320.196 211.691 320.539 211.313 320.979 211.003C321.424 210.687 321.945 210.446 322.543 210.282C323.141 210.112 323.794 210.027 324.503 210.027C325.44 210.027 326.267 210.191 326.981 210.52C327.702 210.842 328.265 211.302 328.669 211.899C329.079 212.491 329.284 213.191 329.284 214H326.217C326.217 213.678 326.149 213.394 326.015 213.147C325.886 212.901 325.689 212.708 325.426 212.567C325.162 212.427 324.831 212.356 324.433 212.356C324.046 212.356 323.721 212.415 323.457 212.532C323.193 212.649 322.994 212.808 322.859 213.007C322.725 213.2 322.657 213.414 322.657 213.648C322.657 213.842 322.71 214.018 322.815 214.176C322.927 214.328 323.082 214.472 323.281 214.606C323.486 214.741 323.732 214.87 324.02 214.993C324.312 215.116 324.641 215.236 325.004 215.354C325.684 215.57 326.287 215.813 326.814 216.083C327.348 216.347 327.796 216.648 328.159 216.988C328.528 217.322 328.807 217.703 328.994 218.131C329.188 218.559 329.284 219.042 329.284 219.581C329.284 220.155 329.173 220.665 328.95 221.11C328.728 221.556 328.408 221.934 327.992 222.244C327.576 222.549 327.078 222.78 326.498 222.938C325.918 223.097 325.271 223.176 324.556 223.176C323.899 223.176 323.252 223.094 322.613 222.93C321.98 222.76 321.406 222.502 320.891 222.156C320.375 221.805 319.962 221.356 319.651 220.812C319.347 220.261 319.194 219.607 319.194 218.852H322.288C322.288 219.227 322.338 219.543 322.438 219.801C322.537 220.059 322.684 220.267 322.877 220.425C323.07 220.577 323.308 220.688 323.589 220.759C323.87 220.823 324.192 220.855 324.556 220.855C324.948 220.855 325.265 220.8 325.505 220.688C325.745 220.571 325.921 220.419 326.032 220.231C326.144 220.038 326.199 219.827 326.199 219.599Z" fill="white"/>
<rect x="222" y="196" width="130" height="41" rx="3" stroke="#E84524" stroke-width="4"/>
<rect x="372" y="196" width="109" height="41" rx="3" fill="#E84524"/>
<path d="M406.118 210.203V223H403.042L398.516 215.037V223H395.431V210.203H398.516L403.042 218.166V210.203H406.118ZM407.56 218.342V218.157C407.56 217.46 407.659 216.818 407.858 216.232C408.058 215.641 408.351 215.128 408.737 214.694C409.124 214.261 409.602 213.924 410.17 213.684C410.738 213.438 411.395 213.314 412.139 213.314C412.889 213.314 413.548 213.438 414.116 213.684C414.69 213.924 415.171 214.261 415.558 214.694C415.944 215.128 416.237 215.641 416.437 216.232C416.636 216.818 416.735 217.46 416.735 218.157V218.342C416.735 219.033 416.636 219.675 416.437 220.267C416.237 220.853 415.944 221.365 415.558 221.805C415.171 222.238 414.693 222.575 414.125 222.815C413.557 223.056 412.9 223.176 412.156 223.176C411.412 223.176 410.753 223.056 410.179 222.815C409.604 222.575 409.124 222.238 408.737 221.805C408.351 221.365 408.058 220.853 407.858 220.267C407.659 219.675 407.56 219.033 407.56 218.342ZM410.521 218.157V218.342C410.521 218.699 410.548 219.033 410.601 219.344C410.653 219.654 410.741 219.927 410.864 220.161C410.987 220.39 411.154 220.568 411.365 220.697C411.576 220.826 411.84 220.891 412.156 220.891C412.467 220.891 412.725 220.826 412.93 220.697C413.141 220.568 413.308 220.39 413.431 220.161C413.554 219.927 413.642 219.654 413.694 219.344C413.747 219.033 413.773 218.699 413.773 218.342V218.157C413.773 217.812 413.747 217.486 413.694 217.182C413.642 216.871 413.554 216.599 413.431 216.364C413.308 216.124 413.141 215.937 412.93 215.802C412.719 215.667 412.455 215.6 412.139 215.6C411.828 215.6 411.567 215.667 411.356 215.802C411.151 215.937 410.987 216.124 410.864 216.364C410.741 216.599 410.653 216.871 410.601 217.182C410.548 217.486 410.521 217.812 410.521 218.157ZM423.521 220.82V209.5H426.5V223H423.828L423.521 220.82ZM417.685 218.359V218.175C417.685 217.454 417.764 216.798 417.922 216.206C418.08 215.608 418.314 215.096 418.625 214.668C418.936 214.234 419.322 213.9 419.785 213.666C420.248 213.432 420.781 213.314 421.385 213.314C421.924 213.314 422.396 213.44 422.8 213.692C423.204 213.938 423.55 214.284 423.837 214.729C424.124 215.175 424.358 215.696 424.54 216.294C424.722 216.886 424.859 217.524 424.953 218.21V218.43C424.859 219.074 424.722 219.684 424.54 220.258C424.358 220.826 424.124 221.33 423.837 221.77C423.55 222.209 423.201 222.555 422.791 222.807C422.387 223.053 421.912 223.176 421.367 223.176C420.764 223.176 420.23 223.056 419.768 222.815C419.311 222.575 418.927 222.238 418.616 221.805C418.312 221.371 418.08 220.861 417.922 220.275C417.764 219.689 417.685 219.051 417.685 218.359ZM420.646 218.175V218.359C420.646 218.717 420.67 219.048 420.717 219.353C420.764 219.657 420.843 219.927 420.954 220.161C421.071 220.39 421.224 220.568 421.411 220.697C421.604 220.826 421.842 220.891 422.123 220.891C422.504 220.891 422.817 220.8 423.063 220.618C423.315 220.437 423.5 220.179 423.617 219.845C423.74 219.511 423.793 219.118 423.775 218.667V217.973C423.787 217.586 423.761 217.246 423.696 216.953C423.632 216.654 423.529 216.405 423.389 216.206C423.254 216.007 423.081 215.857 422.87 215.758C422.665 215.652 422.422 215.6 422.141 215.6C421.865 215.6 421.631 215.664 421.438 215.793C421.25 215.922 421.098 216.104 420.98 216.338C420.863 216.566 420.778 216.839 420.726 217.155C420.673 217.466 420.646 217.806 420.646 218.175ZM432.784 223.176C432.011 223.176 431.319 223.056 430.71 222.815C430.101 222.569 429.585 222.232 429.163 221.805C428.747 221.377 428.428 220.885 428.205 220.328C427.988 219.771 427.88 219.183 427.88 218.562V218.228C427.88 217.53 427.977 216.886 428.17 216.294C428.363 215.696 428.65 215.175 429.031 214.729C429.412 214.284 429.89 213.938 430.464 213.692C431.038 213.44 431.706 213.314 432.468 213.314C433.142 213.314 433.745 213.423 434.278 213.64C434.812 213.856 435.263 214.167 435.632 214.571C436.007 214.976 436.291 215.465 436.484 216.039C436.684 216.613 436.783 217.258 436.783 217.973V219.177H429.014V217.322H433.892V217.094C433.897 216.777 433.842 216.508 433.725 216.285C433.613 216.062 433.449 215.893 433.232 215.775C433.016 215.658 432.752 215.6 432.441 215.6C432.119 215.6 431.853 215.67 431.642 215.811C431.437 215.951 431.275 216.145 431.158 216.391C431.047 216.631 430.968 216.909 430.921 217.226C430.874 217.542 430.851 217.876 430.851 218.228V218.562C430.851 218.913 430.897 219.232 430.991 219.52C431.091 219.807 431.231 220.053 431.413 220.258C431.601 220.457 431.823 220.612 432.081 220.724C432.345 220.835 432.644 220.891 432.978 220.891C433.382 220.891 433.78 220.814 434.173 220.662C434.565 220.51 434.902 220.258 435.184 219.906L436.528 221.506C436.335 221.781 436.06 222.048 435.702 222.306C435.351 222.563 434.929 222.774 434.437 222.938C433.944 223.097 433.394 223.176 432.784 223.176ZM443.217 218.983V210.203H446.293V218.983C446.293 219.839 446.097 220.58 445.704 221.207C445.317 221.834 444.79 222.32 444.122 222.666C443.46 223.006 442.716 223.176 441.89 223.176C441.034 223.176 440.272 223.032 439.604 222.745C438.942 222.458 438.421 222.016 438.04 221.418C437.665 220.82 437.478 220.059 437.478 219.133H440.571C440.571 219.566 440.621 219.906 440.721 220.152C440.82 220.393 440.967 220.562 441.16 220.662C441.359 220.756 441.603 220.803 441.89 220.803C442.171 220.803 442.408 220.732 442.602 220.592C442.801 220.445 442.953 220.237 443.059 219.968C443.164 219.692 443.217 219.364 443.217 218.983ZM454.845 219.599C454.845 219.399 454.815 219.221 454.757 219.062C454.698 218.898 454.59 218.746 454.432 218.605C454.273 218.465 454.045 218.324 453.746 218.184C453.453 218.037 453.066 217.885 452.586 217.727C452.023 217.539 451.481 217.328 450.96 217.094C450.438 216.854 449.973 216.575 449.562 216.259C449.152 215.937 448.827 215.562 448.587 215.134C448.347 214.7 448.227 214.196 448.227 213.622C448.227 213.071 448.35 212.576 448.596 212.137C448.842 211.691 449.185 211.313 449.624 211.003C450.069 210.687 450.591 210.446 451.188 210.282C451.786 210.112 452.439 210.027 453.148 210.027C454.086 210.027 454.912 210.191 455.627 210.52C456.348 210.842 456.91 211.302 457.314 211.899C457.725 212.491 457.93 213.191 457.93 214H454.862C454.862 213.678 454.795 213.394 454.66 213.147C454.531 212.901 454.335 212.708 454.071 212.567C453.808 212.427 453.477 212.356 453.078 212.356C452.691 212.356 452.366 212.415 452.103 212.532C451.839 212.649 451.64 212.808 451.505 213.007C451.37 213.2 451.303 213.414 451.303 213.648C451.303 213.842 451.355 214.018 451.461 214.176C451.572 214.328 451.728 214.472 451.927 214.606C452.132 214.741 452.378 214.87 452.665 214.993C452.958 215.116 453.286 215.236 453.649 215.354C454.329 215.57 454.933 215.813 455.46 216.083C455.993 216.347 456.441 216.648 456.805 216.988C457.174 217.322 457.452 217.703 457.64 218.131C457.833 218.559 457.93 219.042 457.93 219.581C457.93 220.155 457.818 220.665 457.596 221.11C457.373 221.556 457.054 221.934 456.638 222.244C456.222 222.549 455.724 222.78 455.144 222.938C454.563 223.097 453.916 223.176 453.201 223.176C452.545 223.176 451.897 223.094 451.259 222.93C450.626 222.76 450.052 222.502 449.536 222.156C449.021 221.805 448.607 221.356 448.297 220.812C447.992 220.261 447.84 219.607 447.84 218.852H450.934C450.934 219.227 450.983 219.543 451.083 219.801C451.183 220.059 451.329 220.267 451.522 220.425C451.716 220.577 451.953 220.688 452.234 220.759C452.516 220.823 452.838 220.855 453.201 220.855C453.594 220.855 453.91 220.8 454.15 220.688C454.391 220.571 454.566 220.419 454.678 220.231C454.789 220.038 454.845 219.827 454.845 219.599Z" fill="white"/>
<rect x="372" y="196" width="109" height="41" rx="3" stroke="#E84524" stroke-width="4"/>
<rect x="501" y="196" width="177" height="41" rx="3" fill="#E84524"/>
<path d="M529.488 218.658H526.307V216.276H529.488C529.922 216.276 530.273 216.203 530.543 216.057C530.812 215.91 531.009 215.708 531.132 215.45C531.261 215.187 531.325 214.891 531.325 214.562C531.325 214.211 531.261 213.886 531.132 213.587C531.009 213.288 530.812 213.048 530.543 212.866C530.273 212.679 529.922 212.585 529.488 212.585H527.467V223H524.382V210.203H529.488C530.514 210.203 531.396 210.391 532.134 210.766C532.878 211.141 533.449 211.656 533.848 212.312C534.246 212.963 534.445 213.707 534.445 214.545C534.445 215.371 534.246 216.092 533.848 216.707C533.449 217.322 532.878 217.803 532.134 218.148C531.396 218.488 530.514 218.658 529.488 218.658ZM539.024 221.884L541.485 213.49H544.667L540.844 224.415C540.762 224.655 540.653 224.913 540.519 225.188C540.384 225.47 540.199 225.736 539.965 225.988C539.73 226.24 539.429 226.445 539.06 226.604C538.696 226.762 538.245 226.841 537.706 226.841C537.419 226.841 537.208 226.826 537.073 226.797C536.944 226.773 536.745 226.729 536.476 226.665V224.547C536.552 224.547 536.616 224.547 536.669 224.547C536.728 224.547 536.792 224.547 536.862 224.547C537.179 224.547 537.431 224.515 537.618 224.45C537.812 224.386 537.958 224.292 538.058 224.169C538.163 224.046 538.245 223.896 538.304 223.721L539.024 221.884ZM538.4 213.49L540.272 220.144L540.598 223.281H538.611L535.228 213.49H538.4ZM550.45 213.49V215.547H544.72V213.49H550.45ZM545.924 211.126H548.886V219.897C548.886 220.149 548.915 220.346 548.974 220.486C549.032 220.621 549.132 220.718 549.272 220.776C549.419 220.829 549.612 220.855 549.853 220.855C550.022 220.855 550.163 220.853 550.274 220.847C550.386 220.835 550.491 220.82 550.591 220.803V222.921C550.339 223.003 550.075 223.064 549.8 223.105C549.524 223.152 549.231 223.176 548.921 223.176C548.288 223.176 547.746 223.076 547.295 222.877C546.85 222.678 546.51 222.364 546.275 221.937C546.041 221.509 545.924 220.952 545.924 220.267V211.126ZM554.528 209.5V223H551.566V209.5H554.528ZM554.177 217.92L553.482 217.938C553.482 217.27 553.564 216.654 553.729 216.092C553.893 215.529 554.127 215.04 554.432 214.624C554.736 214.208 555.103 213.886 555.53 213.657C555.958 213.429 556.433 213.314 556.954 213.314C557.423 213.314 557.851 213.382 558.237 213.517C558.63 213.651 558.967 213.868 559.248 214.167C559.535 214.466 559.755 214.855 559.907 215.336C560.065 215.816 560.145 216.402 560.145 217.094V223H557.165V217.076C557.165 216.689 557.109 216.391 556.998 216.18C556.893 215.963 556.74 215.813 556.541 215.731C556.342 215.644 556.099 215.6 555.812 215.6C555.466 215.6 555.185 215.658 554.968 215.775C554.751 215.893 554.584 216.057 554.467 216.268C554.355 216.473 554.279 216.716 554.238 216.997C554.197 217.278 554.177 217.586 554.177 217.92ZM561.419 218.342V218.157C561.419 217.46 561.519 216.818 561.718 216.232C561.917 215.641 562.21 215.128 562.597 214.694C562.983 214.261 563.461 213.924 564.029 213.684C564.598 213.438 565.254 213.314 565.998 213.314C566.748 213.314 567.407 213.438 567.976 213.684C568.55 213.924 569.03 214.261 569.417 214.694C569.804 215.128 570.097 215.641 570.296 216.232C570.495 216.818 570.595 217.46 570.595 218.157V218.342C570.595 219.033 570.495 219.675 570.296 220.267C570.097 220.853 569.804 221.365 569.417 221.805C569.03 222.238 568.553 222.575 567.984 222.815C567.416 223.056 566.76 223.176 566.016 223.176C565.271 223.176 564.612 223.056 564.038 222.815C563.464 222.575 562.983 222.238 562.597 221.805C562.21 221.365 561.917 220.853 561.718 220.267C561.519 219.675 561.419 219.033 561.419 218.342ZM564.381 218.157V218.342C564.381 218.699 564.407 219.033 564.46 219.344C564.513 219.654 564.601 219.927 564.724 220.161C564.847 220.39 565.014 220.568 565.225 220.697C565.436 220.826 565.699 220.891 566.016 220.891C566.326 220.891 566.584 220.826 566.789 220.697C567 220.568 567.167 220.39 567.29 220.161C567.413 219.927 567.501 219.654 567.554 219.344C567.606 219.033 567.633 218.699 567.633 218.342V218.157C567.633 217.812 567.606 217.486 567.554 217.182C567.501 216.871 567.413 216.599 567.29 216.364C567.167 216.124 567 215.937 566.789 215.802C566.578 215.667 566.314 215.6 565.998 215.6C565.688 215.6 565.427 215.667 565.216 215.802C565.011 215.937 564.847 216.124 564.724 216.364C564.601 216.599 564.513 216.871 564.46 217.182C564.407 217.486 564.381 217.812 564.381 218.157ZM574.822 215.521V223H571.86V213.49H574.638L574.822 215.521ZM574.471 217.92L573.776 217.938C573.776 217.211 573.864 216.563 574.04 215.995C574.216 215.421 574.465 214.935 574.787 214.536C575.109 214.138 575.493 213.836 575.938 213.631C576.39 213.42 576.891 213.314 577.441 213.314C577.881 213.314 578.282 213.379 578.646 213.508C579.015 213.637 579.331 213.845 579.595 214.132C579.864 214.419 580.069 214.8 580.21 215.274C580.356 215.743 580.43 216.323 580.43 217.015V223H577.45V217.006C577.45 216.625 577.397 216.335 577.292 216.136C577.187 215.931 577.034 215.79 576.835 215.714C576.636 215.638 576.393 215.6 576.105 215.6C575.801 215.6 575.543 215.658 575.332 215.775C575.121 215.893 574.951 216.057 574.822 216.268C574.699 216.473 574.608 216.716 574.55 216.997C574.497 217.278 574.471 217.586 574.471 217.92ZM587.856 216.338V218.632H582.574V216.338H587.856ZM601.146 216.347V216.865C601.146 217.844 601.008 218.723 600.732 219.502C600.463 220.275 600.079 220.938 599.581 221.488C599.083 222.033 598.494 222.452 597.814 222.745C597.135 223.032 596.385 223.176 595.564 223.176C594.738 223.176 593.982 223.032 593.297 222.745C592.617 222.452 592.025 222.033 591.521 221.488C591.023 220.938 590.637 220.275 590.361 219.502C590.092 218.723 589.957 217.844 589.957 216.865V216.347C589.957 215.368 590.092 214.489 590.361 213.71C590.637 212.931 591.021 212.269 591.513 211.724C592.011 211.173 592.6 210.754 593.279 210.467C593.965 210.174 594.721 210.027 595.547 210.027C596.367 210.027 597.117 210.174 597.797 210.467C598.482 210.754 599.074 211.173 599.572 211.724C600.07 212.269 600.457 212.931 600.732 213.71C601.008 214.489 601.146 215.368 601.146 216.347ZM598.017 216.865V216.329C598.017 215.696 597.961 215.14 597.85 214.659C597.744 214.173 597.586 213.766 597.375 213.438C597.164 213.109 596.903 212.863 596.593 212.699C596.288 212.529 595.939 212.444 595.547 212.444C595.137 212.444 594.779 212.529 594.475 212.699C594.17 212.863 593.915 213.109 593.71 213.438C593.505 213.766 593.35 214.173 593.244 214.659C593.145 215.14 593.095 215.696 593.095 216.329V216.865C593.095 217.492 593.145 218.049 593.244 218.535C593.35 219.016 593.505 219.423 593.71 219.757C593.921 220.091 594.179 220.343 594.483 220.513C594.794 220.683 595.154 220.768 595.564 220.768C595.957 220.768 596.306 220.683 596.61 220.513C596.915 220.343 597.17 220.091 597.375 219.757C597.586 219.423 597.744 219.016 597.85 218.535C597.961 218.049 598.017 217.492 598.017 216.865ZM605.593 215.318V226.656H602.631V213.49H605.391L605.593 215.318ZM611.429 218.131V218.315C611.429 219.007 611.35 219.648 611.191 220.24C611.033 220.832 610.799 221.348 610.488 221.787C610.178 222.227 609.791 222.569 609.328 222.815C608.871 223.056 608.341 223.176 607.737 223.176C607.169 223.176 606.68 223.05 606.27 222.798C605.859 222.546 605.517 222.197 605.241 221.752C604.966 221.307 604.743 220.797 604.573 220.223C604.403 219.648 604.269 219.042 604.169 218.403V218.166C604.269 217.48 604.403 216.845 604.573 216.259C604.743 215.667 604.966 215.151 605.241 214.712C605.517 214.272 605.856 213.93 606.261 213.684C606.671 213.438 607.16 213.314 607.729 213.314C608.332 213.314 608.862 213.429 609.319 213.657C609.782 213.886 610.169 214.214 610.479 214.642C610.796 215.063 611.033 215.57 611.191 216.162C611.35 216.754 611.429 217.41 611.429 218.131ZM608.467 218.315V218.131C608.467 217.762 608.44 217.425 608.388 217.12C608.335 216.81 608.25 216.54 608.133 216.312C608.021 216.083 607.872 215.907 607.685 215.784C607.497 215.661 607.266 215.6 606.99 215.6C606.674 215.6 606.407 215.649 606.19 215.749C605.979 215.843 605.81 215.989 605.681 216.188C605.558 216.382 605.47 216.625 605.417 216.918C605.37 217.205 605.35 217.542 605.355 217.929V218.649C605.344 219.095 605.388 219.487 605.487 219.827C605.587 220.161 605.76 220.422 606.006 220.609C606.252 220.797 606.586 220.891 607.008 220.891C607.289 220.891 607.523 220.826 607.711 220.697C607.898 220.562 608.048 220.378 608.159 220.144C608.271 219.903 608.35 219.628 608.396 219.317C608.443 219.007 608.467 218.673 608.467 218.315ZM617.353 223.176C616.579 223.176 615.888 223.056 615.278 222.815C614.669 222.569 614.153 222.232 613.731 221.805C613.315 221.377 612.996 220.885 612.773 220.328C612.557 219.771 612.448 219.183 612.448 218.562V218.228C612.448 217.53 612.545 216.886 612.738 216.294C612.932 215.696 613.219 215.175 613.6 214.729C613.98 214.284 614.458 213.938 615.032 213.692C615.606 213.44 616.274 213.314 617.036 213.314C617.71 213.314 618.313 213.423 618.847 213.64C619.38 213.856 619.831 214.167 620.2 214.571C620.575 214.976 620.859 215.465 621.053 216.039C621.252 216.613 621.352 217.258 621.352 217.973V219.177H613.582V217.322H618.46V217.094C618.466 216.777 618.41 216.508 618.293 216.285C618.182 216.062 618.018 215.893 617.801 215.775C617.584 215.658 617.32 215.6 617.01 215.6C616.688 215.6 616.421 215.67 616.21 215.811C616.005 215.951 615.844 216.145 615.727 216.391C615.615 216.631 615.536 216.909 615.489 217.226C615.442 217.542 615.419 217.876 615.419 218.228V218.562C615.419 218.913 615.466 219.232 615.56 219.52C615.659 219.807 615.8 220.053 615.981 220.258C616.169 220.457 616.392 220.612 616.649 220.724C616.913 220.835 617.212 220.891 617.546 220.891C617.95 220.891 618.349 220.814 618.741 220.662C619.134 220.51 619.471 220.258 619.752 219.906L621.097 221.506C620.903 221.781 620.628 222.048 620.271 222.306C619.919 222.563 619.497 222.774 619.005 222.938C618.513 223.097 617.962 223.176 617.353 223.176ZM625.465 215.521V223H622.503V213.49H625.28L625.465 215.521ZM625.113 217.92L624.419 217.938C624.419 217.211 624.507 216.563 624.683 215.995C624.858 215.421 625.107 214.935 625.43 214.536C625.752 214.138 626.136 213.836 626.581 213.631C627.032 213.42 627.533 213.314 628.084 213.314C628.523 213.314 628.925 213.379 629.288 213.508C629.657 213.637 629.974 213.845 630.237 214.132C630.507 214.419 630.712 214.8 630.853 215.274C630.999 215.743 631.072 216.323 631.072 217.015V223H628.093V217.006C628.093 216.625 628.04 216.335 627.935 216.136C627.829 215.931 627.677 215.79 627.478 215.714C627.278 215.638 627.035 215.6 626.748 215.6C626.443 215.6 626.186 215.658 625.975 215.775C625.764 215.893 625.594 216.057 625.465 216.268C625.342 216.473 625.251 216.716 625.192 216.997C625.14 217.278 625.113 217.586 625.113 217.92ZM640.134 218.667H643.21C643.169 219.558 642.929 220.343 642.489 221.022C642.05 221.702 641.44 222.232 640.661 222.613C639.888 222.988 638.974 223.176 637.919 223.176C637.063 223.176 636.299 223.032 635.625 222.745C634.957 222.458 634.389 222.045 633.92 221.506C633.457 220.967 633.103 220.313 632.856 219.546C632.616 218.778 632.496 217.914 632.496 216.953V216.259C632.496 215.298 632.622 214.434 632.874 213.666C633.132 212.893 633.495 212.236 633.964 211.697C634.438 211.152 635.007 210.736 635.669 210.449C636.331 210.162 637.066 210.019 637.875 210.019C638.988 210.019 639.929 210.218 640.696 210.616C641.464 211.015 642.059 211.562 642.48 212.26C642.902 212.951 643.151 213.739 643.228 214.624H640.151C640.14 214.144 640.058 213.742 639.905 213.42C639.753 213.092 639.513 212.846 639.185 212.682C638.856 212.518 638.42 212.436 637.875 212.436C637.494 212.436 637.163 212.506 636.882 212.646C636.601 212.787 636.366 213.01 636.179 213.314C635.991 213.619 635.851 214.015 635.757 214.501C635.669 214.981 635.625 215.562 635.625 216.241V216.953C635.625 217.633 635.666 218.213 635.748 218.693C635.83 219.174 635.962 219.566 636.144 219.871C636.325 220.176 636.56 220.401 636.847 220.548C637.14 220.688 637.497 220.759 637.919 220.759C638.388 220.759 638.783 220.686 639.105 220.539C639.428 220.387 639.677 220.158 639.853 219.854C640.028 219.543 640.122 219.147 640.134 218.667ZM649.512 219.985L652.175 210.203H655.629L651.313 223H649.081L649.512 219.985ZM647.095 210.203L649.758 219.985L650.206 223H647.947L643.658 210.203H647.095Z" fill="white"/>
<rect x="501" y="196" width="177" height="41" rx="3" stroke="#E84524" stroke-width="4"/>
<rect x="698" y="196" width="124" height="41" rx="3" fill="#E84524"/>
<path d="M722.585 210.203H725.099L727.955 219.106L730.812 210.203H733.325L728.975 223H726.936L722.585 210.203ZM721.056 210.203H723.657L724.141 220.012V223H721.056V210.203ZM732.253 210.203H734.863V223H731.77V220.012L732.253 210.203ZM736.331 218.342V218.157C736.331 217.46 736.431 216.818 736.63 216.232C736.829 215.641 737.122 215.128 737.509 214.694C737.896 214.261 738.373 213.924 738.941 213.684C739.51 213.438 740.166 213.314 740.91 213.314C741.66 213.314 742.319 213.438 742.888 213.684C743.462 213.924 743.942 214.261 744.329 214.694C744.716 215.128 745.009 215.641 745.208 216.232C745.407 216.818 745.507 217.46 745.507 218.157V218.342C745.507 219.033 745.407 219.675 745.208 220.267C745.009 220.853 744.716 221.365 744.329 221.805C743.942 222.238 743.465 222.575 742.896 222.815C742.328 223.056 741.672 223.176 740.928 223.176C740.184 223.176 739.524 223.056 738.95 222.815C738.376 222.575 737.896 222.238 737.509 221.805C737.122 221.365 736.829 220.853 736.63 220.267C736.431 219.675 736.331 219.033 736.331 218.342ZM739.293 218.157V218.342C739.293 218.699 739.319 219.033 739.372 219.344C739.425 219.654 739.513 219.927 739.636 220.161C739.759 220.39 739.926 220.568 740.137 220.697C740.348 220.826 740.611 220.891 740.928 220.891C741.238 220.891 741.496 220.826 741.701 220.697C741.912 220.568 742.079 220.39 742.202 220.161C742.325 219.927 742.413 219.654 742.466 219.344C742.519 219.033 742.545 218.699 742.545 218.342V218.157C742.545 217.812 742.519 217.486 742.466 217.182C742.413 216.871 742.325 216.599 742.202 216.364C742.079 216.124 741.912 215.937 741.701 215.802C741.49 215.667 741.227 215.6 740.91 215.6C740.6 215.6 740.339 215.667 740.128 215.802C739.923 215.937 739.759 216.124 739.636 216.364C739.513 216.599 739.425 216.871 739.372 217.182C739.319 217.486 739.293 217.812 739.293 218.157ZM749.734 215.521V223H746.772V213.49H749.55L749.734 215.521ZM749.383 217.92L748.688 217.938C748.688 217.211 748.776 216.563 748.952 215.995C749.128 215.421 749.377 214.935 749.699 214.536C750.021 214.138 750.405 213.836 750.851 213.631C751.302 213.42 751.803 213.314 752.354 213.314C752.793 213.314 753.194 213.379 753.558 213.508C753.927 213.637 754.243 213.845 754.507 214.132C754.776 214.419 754.981 214.8 755.122 215.274C755.269 215.743 755.342 216.323 755.342 217.015V223H752.362V217.006C752.362 216.625 752.31 216.335 752.204 216.136C752.099 215.931 751.946 215.79 751.747 215.714C751.548 215.638 751.305 215.6 751.018 215.6C750.713 215.6 750.455 215.658 750.244 215.775C750.033 215.893 749.863 216.057 749.734 216.268C749.611 216.473 749.521 216.716 749.462 216.997C749.409 217.278 749.383 217.586 749.383 217.92ZM762.962 213.49H765.651V222.631C765.651 223.51 765.449 224.254 765.045 224.863C764.641 225.479 764.075 225.944 763.349 226.261C762.628 226.583 761.784 226.744 760.817 226.744C760.39 226.744 759.953 226.688 759.508 226.577C759.062 226.472 758.646 226.313 758.26 226.103C757.873 225.892 757.548 225.631 757.284 225.32L758.523 223.58C758.764 223.85 759.065 224.078 759.429 224.266C759.792 224.459 760.22 224.556 760.712 224.556C761.14 224.556 761.497 224.479 761.784 224.327C762.077 224.175 762.3 223.952 762.452 223.659C762.604 223.372 762.681 223.023 762.681 222.613V215.74L762.962 213.49ZM756.643 218.359V218.175C756.643 217.454 756.73 216.798 756.906 216.206C757.088 215.608 757.346 215.096 757.68 214.668C758.02 214.234 758.43 213.9 758.91 213.666C759.391 213.432 759.933 213.314 760.536 213.314C761.187 213.314 761.72 213.44 762.136 213.692C762.558 213.938 762.895 214.284 763.146 214.729C763.404 215.175 763.604 215.696 763.744 216.294C763.891 216.886 764.014 217.524 764.113 218.21V218.43C764.014 219.074 763.876 219.684 763.7 220.258C763.53 220.826 763.308 221.33 763.032 221.77C762.757 222.209 762.411 222.555 761.995 222.807C761.585 223.053 761.093 223.176 760.519 223.176C759.921 223.176 759.382 223.056 758.901 222.815C758.427 222.575 758.02 222.238 757.68 221.805C757.346 221.371 757.088 220.861 756.906 220.275C756.73 219.689 756.643 219.051 756.643 218.359ZM759.604 218.175V218.359C759.604 218.717 759.637 219.048 759.701 219.353C759.771 219.657 759.877 219.927 760.018 220.161C760.158 220.39 760.331 220.568 760.536 220.697C760.747 220.826 760.993 220.891 761.274 220.891C761.702 220.891 762.048 220.8 762.312 220.618C762.575 220.437 762.766 220.179 762.883 219.845C763 219.511 763.05 219.118 763.032 218.667V217.973C763.044 217.586 763.018 217.246 762.953 216.953C762.889 216.654 762.786 216.405 762.646 216.206C762.511 216.007 762.329 215.857 762.101 215.758C761.878 215.652 761.608 215.6 761.292 215.6C761.017 215.6 760.773 215.664 760.562 215.793C760.352 215.922 760.176 216.104 760.035 216.338C759.895 216.566 759.786 216.839 759.71 217.155C759.64 217.466 759.604 217.806 759.604 218.175ZM766.987 218.342V218.157C766.987 217.46 767.087 216.818 767.286 216.232C767.485 215.641 767.778 215.128 768.165 214.694C768.552 214.261 769.029 213.924 769.598 213.684C770.166 213.438 770.822 213.314 771.566 213.314C772.316 213.314 772.976 213.438 773.544 213.684C774.118 213.924 774.599 214.261 774.985 214.694C775.372 215.128 775.665 215.641 775.864 216.232C776.063 216.818 776.163 217.46 776.163 218.157V218.342C776.163 219.033 776.063 219.675 775.864 220.267C775.665 220.853 775.372 221.365 774.985 221.805C774.599 222.238 774.121 222.575 773.553 222.815C772.984 223.056 772.328 223.176 771.584 223.176C770.84 223.176 770.181 223.056 769.606 222.815C769.032 222.575 768.552 222.238 768.165 221.805C767.778 221.365 767.485 220.853 767.286 220.267C767.087 219.675 766.987 219.033 766.987 218.342ZM769.949 218.157V218.342C769.949 218.699 769.976 219.033 770.028 219.344C770.081 219.654 770.169 219.927 770.292 220.161C770.415 220.39 770.582 220.568 770.793 220.697C771.004 220.826 771.268 220.891 771.584 220.891C771.895 220.891 772.152 220.826 772.357 220.697C772.568 220.568 772.735 220.39 772.858 220.161C772.981 219.927 773.069 219.654 773.122 219.344C773.175 219.033 773.201 218.699 773.201 218.342V218.157C773.201 217.812 773.175 217.486 773.122 217.182C773.069 216.871 772.981 216.599 772.858 216.364C772.735 216.124 772.568 215.937 772.357 215.802C772.146 215.667 771.883 215.6 771.566 215.6C771.256 215.6 770.995 215.667 770.784 215.802C770.579 215.937 770.415 216.124 770.292 216.364C770.169 216.599 770.081 216.871 770.028 217.182C769.976 217.486 769.949 217.812 769.949 218.157ZM781.779 223H778.94L778.958 220.627H781.779C782.365 220.627 782.86 220.486 783.265 220.205C783.675 219.924 783.985 219.505 784.196 218.948C784.413 218.386 784.521 217.694 784.521 216.874V216.32C784.521 215.705 784.46 215.166 784.337 214.703C784.22 214.234 784.044 213.845 783.81 213.534C783.575 213.218 783.282 212.98 782.931 212.822C782.585 212.664 782.187 212.585 781.735 212.585H778.888V210.203H781.735C782.603 210.203 783.396 210.353 784.117 210.651C784.844 210.944 785.471 211.366 785.998 211.917C786.531 212.462 786.941 213.109 787.229 213.859C787.521 214.604 787.668 215.43 787.668 216.338V216.874C787.668 217.776 787.521 218.603 787.229 219.353C786.941 220.103 786.534 220.75 786.007 221.295C785.479 221.84 784.855 222.262 784.135 222.561C783.42 222.854 782.635 223 781.779 223ZM780.707 210.203V223H777.622V210.203H780.707ZM794.497 217.56H791.201L791.184 215.538H793.855C794.336 215.538 794.72 215.485 795.007 215.38C795.294 215.269 795.502 215.107 795.631 214.896C795.766 214.686 795.833 214.422 795.833 214.105C795.833 213.742 795.766 213.449 795.631 213.227C795.496 213.004 795.282 212.843 794.989 212.743C794.702 212.638 794.33 212.585 793.873 212.585H792.361V223H789.276V210.203H793.873C794.664 210.203 795.37 210.276 795.991 210.423C796.612 210.563 797.14 210.78 797.573 211.073C798.013 211.366 798.347 211.735 798.575 212.181C798.804 212.62 798.918 213.139 798.918 213.736C798.918 214.258 798.807 214.747 798.584 215.204C798.361 215.661 797.989 216.033 797.468 216.32C796.952 216.602 796.246 216.748 795.35 216.76L794.497 217.56ZM794.374 223H790.454L791.509 220.627H794.374C794.796 220.627 795.133 220.562 795.385 220.434C795.643 220.299 795.827 220.123 795.938 219.906C796.056 219.684 796.114 219.438 796.114 219.168C796.114 218.84 796.059 218.556 795.947 218.315C795.842 218.075 795.672 217.891 795.438 217.762C795.203 217.627 794.89 217.56 794.497 217.56H791.904L791.922 215.538H795.024L795.745 216.347C796.601 216.312 797.277 216.432 797.775 216.707C798.279 216.982 798.64 217.346 798.856 217.797C799.073 218.248 799.182 218.72 799.182 219.212C799.182 220.05 799 220.75 798.637 221.312C798.279 221.875 797.743 222.297 797.028 222.578C796.313 222.859 795.429 223 794.374 223Z" fill="white"/>
<rect x="698" y="196" width="124" height="41" rx="3" stroke="#E84524" stroke-width="4"/>
<path d="M1066 0H1348C1356.28 0 1363 6.71573 1363 15V282C1363 290.284 1356.28 297 1348 297H1066V0Z" fill="#0066A6"/>
<path d="M1104 192L1113.08 98H1144.93L1153.9 192H1136.07L1134.75 176.788H1123.37L1122.28 192H1104ZM1124.79 161.797H1133.32L1129.17 113.974H1128.29L1124.79 161.797Z" fill="#E84524"/>
<path d="M1158.6 164.752V152.385H1186.18V164.752H1158.6Z" fill="white"/>
<path d="M1193.62 192V98H1231.26V116.164H1212.77V134.438H1230.5V152.165H1212.77V173.722H1232.47V191.997H1193.62V192Z" fill="white"/>
<path d="M1250.08 192V161.031L1235.09 98H1253.69L1258.94 129.845L1264.2 98H1282.8L1267.81 161.031V192H1250.08Z" fill="white"/>
<path d="M1287.51 192V98H1325.15V116.164H1306.66V134.438H1324.39V152.165H1306.66V173.722H1326.36V191.997H1287.51V192Z" fill="white"/>
</svg>
